<svg width="648" height="512" viewBox="0 0 648 512" fill="none" xmlns="http://www.w3.org/2000/svg">
<path d="M573.989 227.895L581.626 232.026L578.192 237.772L570.489 233.219L570.628 241.697H564.044L564.113 233.148L556.407 237.772L553.045 232.026L560.679 227.895L553.045 223.692L556.407 217.948L564.113 222.569L564.044 214.023H570.628L570.489 222.569L578.192 217.948L581.626 223.692L573.989 227.895Z" fill="#D9D9D1"/>
<path d="M605.791 227.895L613.427 232.026L609.993 237.772L602.289 233.219L602.428 241.697H595.843L595.913 233.148L588.207 237.772L584.843 232.026L592.479 227.895L584.843 223.692L588.207 217.948L595.913 222.569L595.843 214.023H602.428L602.289 222.569L609.993 217.948L613.427 223.692L605.791 227.895Z" fill="#D9D9D1"/>
<path d="M513.49 269.096H243.525C238.051 269.096 233.611 264.658 233.611 259.182V10.8096C233.611 5.33433 238.051 0.895752 243.525 0.895752H513.49C518.967 0.895752 523.404 5.33433 523.404 10.8096V259.182C523.404 264.658 518.967 269.096 513.49 269.096Z" fill="#FEFEFE"/>
<path d="M513.49 269.096C513.49 269.096 513.731 269.07 514.202 269.04C514.675 269.009 515.381 268.91 516.277 268.652C517.164 268.372 518.252 267.917 519.36 267.085C520.457 266.26 521.595 265.061 522.361 263.406C523.218 261.773 523.392 259.708 523.307 257.452C523.301 255.193 523.295 252.723 523.288 250.047C523.277 244.694 523.267 238.519 523.253 231.569C523.223 203.754 523.181 163.521 523.128 113.81C523.113 88.9493 523.096 61.7224 523.078 32.4916C523.066 25.1907 523.052 17.7644 523.038 10.2186C522.863 6.55836 520.338 3.11269 516.835 1.84927C515.1 1.12689 513.202 1.24326 511.257 1.23871C509.325 1.24024 507.386 1.24024 505.44 1.24175C489.868 1.24779 473.842 1.25232 457.409 1.25836C391.675 1.26744 319.407 1.27801 243.552 1.28859C241.268 1.2901 239.012 2.12734 237.297 3.62047C235.568 5.09697 234.412 7.21576 234.113 9.45998C233.955 10.5632 234.017 11.7541 234.005 12.9314V16.4586C234.004 18.8086 234.004 21.1526 234.004 23.4951C234.004 32.8619 234.004 42.1682 234.002 51.405C234.001 69.8802 233.999 88.0833 233.996 105.971C233.989 141.744 233.981 176.252 233.973 209.123C233.967 225.56 233.963 241.587 233.957 257.159C233.964 258.126 233.931 259.122 233.999 260.042C234.103 260.97 234.292 261.893 234.652 262.756C235.349 264.488 236.562 265.992 238.081 267.051C239.606 268.105 241.426 268.703 243.268 268.744C245.167 268.749 247.06 268.755 248.944 268.761C256.497 268.764 263.931 268.767 271.24 268.771C300.472 268.788 327.702 268.805 352.561 268.818C402.274 268.871 442.502 268.913 470.314 268.944C484.21 268.975 494.999 269.001 502.328 269.018C505.981 269.034 508.769 269.048 510.654 269.057C512.529 269.069 513.49 269.096 513.49 269.096C513.49 269.096 512.529 269.123 510.654 269.137C508.769 269.146 505.981 269.158 502.328 269.176C494.999 269.193 484.21 269.219 470.314 269.25C442.502 269.279 402.274 269.321 352.561 269.376C327.702 269.389 300.472 269.406 271.24 269.423C263.931 269.427 256.497 269.43 248.944 269.433C247.053 269.43 245.155 269.426 243.248 269.423C241.28 269.38 239.326 268.74 237.693 267.614C236.064 266.48 234.762 264.871 234.014 263.013C233.627 262.088 233.422 261.099 233.313 260.103C233.238 259.086 233.275 258.138 233.265 257.159C233.26 241.587 233.254 225.56 233.248 209.123C233.241 176.252 233.233 141.744 233.225 105.971C233.224 88.0833 233.222 69.8802 233.219 51.405C233.219 42.1682 233.219 32.8619 233.218 23.4951C233.218 21.1526 233.218 18.8086 233.218 16.4586V12.9314C233.233 11.7601 233.163 10.5829 233.333 9.34966C233.659 6.91955 234.91 4.62395 236.781 3.02655C238.634 1.4095 241.087 0.501221 243.552 0.501221C319.407 0.511805 391.675 0.523889 457.409 0.532963C473.842 0.539005 489.868 0.543536 505.44 0.549589C507.386 0.549589 509.325 0.5511 511.257 0.5511C513.147 0.557141 515.209 0.434727 517.074 1.21C520.826 2.56712 523.525 6.25762 523.709 10.1778C523.717 17.7372 523.725 25.1771 523.731 32.4916C523.714 61.7224 523.699 88.9493 523.684 113.81C523.631 163.521 523.587 203.754 523.558 231.569C523.545 238.519 523.533 244.694 523.522 250.047C523.516 252.723 523.51 255.193 523.504 257.452C523.579 259.69 523.388 261.833 522.505 263.476C521.715 265.15 520.549 266.356 519.431 267.181C518.304 268.013 517.199 268.46 516.3 268.727C515.393 268.977 514.68 269.061 514.205 269.081C513.731 269.098 513.49 269.096 513.49 269.096Z" fill="#0D151D"/>
<path d="M255.482 19.4826C255.482 22.2497 253.236 24.4924 250.469 24.4924C247.703 24.4924 245.461 22.2497 245.461 19.4826C245.461 16.7155 247.703 14.4728 250.469 14.4728C253.236 14.4728 255.482 16.7155 255.482 19.4826Z" fill="#0D151D"/>
<path d="M270.114 19.4826C270.114 22.2497 267.871 24.4924 265.104 24.4924C262.337 24.4924 260.094 22.2497 260.094 19.4826C260.094 16.7155 262.337 14.4728 265.104 14.4728C267.871 14.4728 270.114 16.7155 270.114 19.4826Z" fill="#0D151D"/>
<path d="M284.744 19.4826C284.744 22.2497 282.503 24.4924 279.734 24.4924C276.969 24.4924 274.728 22.2497 274.728 19.4826C274.728 16.7155 276.969 14.4728 279.734 14.4728C282.503 14.4728 284.744 16.7155 284.744 19.4826Z" fill="#0D151D"/>
<path d="M523.404 33.6946C523.404 33.9122 458.527 34.0875 378.515 34.0875C298.476 34.0875 233.611 33.9122 233.611 33.6946C233.611 33.4769 298.476 33.3016 378.515 33.3016C458.527 33.3016 523.404 33.4769 523.404 33.6946Z" fill="#0D151D"/>
<path d="M420.133 133.939C420.133 133.939 420.245 133.775 420.471 133.465L420.661 133.205L420.851 132.863C420.985 132.612 421.155 132.329 421.273 131.973C421.337 131.797 421.415 131.614 421.48 131.417C421.532 131.214 421.585 131.002 421.642 130.778C421.708 130.556 421.743 130.317 421.774 130.067C421.8 129.817 421.863 129.56 421.866 129.286C421.959 128.194 421.86 126.927 421.615 125.531C421.122 122.728 419.86 119.441 417.959 115.882C416.061 112.314 413.471 108.489 410.304 104.511C407.135 100.531 403.338 96.4331 398.989 92.3284C394.634 88.2284 389.716 84.1206 384.217 80.2457C381.466 78.3113 378.568 76.442 375.517 74.6862C372.471 72.9258 369.262 71.2943 365.884 69.8916C362.507 68.507 358.951 67.3121 355.214 66.7907C353.351 66.5427 351.435 66.4454 349.557 66.7707C348.62 66.934 347.704 67.2117 346.843 67.6198C345.995 68.0549 345.221 68.6274 344.585 69.3437C343.976 70.0821 343.529 70.9365 343.229 71.8407C342.959 72.7548 342.826 73.7039 342.81 74.655C342.779 76.5603 343.176 78.4399 343.708 80.2411C344.804 83.8519 346.535 87.1818 348.429 90.3027C350.34 93.4218 352.453 96.3385 354.664 99.0763C356.874 101.817 359.172 104.39 361.511 106.806C366.194 111.635 371.016 115.857 375.743 119.521C380.474 123.181 385.115 126.293 389.538 128.804C393.961 131.314 398.142 133.279 401.961 134.598C405.774 135.922 409.216 136.657 412.059 136.709C413.478 136.735 414.745 136.636 415.807 136.373C416.077 136.328 416.322 136.226 416.566 136.161C416.808 136.089 417.038 136.021 417.247 135.919C417.458 135.829 417.661 135.741 417.852 135.659C418.038 135.564 418.205 135.459 418.369 135.368C418.703 135.197 418.957 134.986 419.183 134.813L419.492 134.574L419.719 134.345C419.991 134.074 420.133 133.939 420.133 133.939C420.133 133.939 420.002 134.084 419.736 134.362L419.509 134.595L419.203 134.84C418.979 135.015 418.726 135.231 418.391 135.407C418.228 135.501 418.061 135.609 417.876 135.707C417.683 135.789 417.481 135.878 417.268 135.972C417.058 136.075 416.827 136.146 416.584 136.219C416.339 136.286 416.093 136.39 415.824 136.438C414.756 136.708 413.482 136.815 412.057 136.795C409.2 136.757 405.745 136.032 401.921 134.715C398.089 133.404 393.894 131.447 389.461 128.942C385.024 126.435 380.373 123.325 375.629 119.667C370.892 116.005 366.057 111.782 361.363 106.948C359.019 104.529 356.716 101.955 354.499 99.2098C352.28 96.4676 350.161 93.5449 348.242 90.417C346.341 87.2857 344.6 83.9424 343.494 80.3031C342.957 78.4869 342.556 76.5907 342.588 74.6506C342.604 73.6829 342.739 72.7126 343.016 71.7726C343.324 70.8441 343.785 69.9637 344.416 69.1992C345.073 68.4582 345.873 67.867 346.744 67.4194C347.628 66.9987 348.566 66.7174 349.519 66.5508C351.43 66.2203 353.366 66.3217 355.244 66.5709C359.008 67.0978 362.58 68.2984 365.969 69.6888C369.356 71.0974 372.571 72.7363 375.624 74.5011C378.679 76.2628 381.582 78.1396 384.336 80.0784C389.84 83.9638 394.761 88.0821 399.116 92.1927C403.467 96.3094 407.26 100.42 410.427 104.412C413.592 108.402 416.178 112.243 418.068 115.824C419.963 119.398 421.216 122.697 421.701 125.515C421.942 126.919 422.034 128.194 421.931 129.291C421.928 129.566 421.862 129.826 421.834 130.076C421.8 130.328 421.765 130.569 421.697 130.791C421.638 131.014 421.582 131.228 421.529 131.432C421.46 131.632 421.381 131.813 421.314 131.988C421.193 132.346 421.019 132.629 420.881 132.879L420.684 133.22L420.488 133.48C420.257 133.785 420.133 133.939 420.133 133.939Z" fill="#953333"/>
<path d="M432.726 95.034C432.726 95.034 432.681 94.8419 432.599 94.4671L432.531 94.1514C432.499 94.0367 432.447 93.9155 432.402 93.7813C432.305 93.5136 432.21 93.1985 432.022 92.8729C431.936 92.7075 431.852 92.5281 431.747 92.3469C431.631 92.1733 431.507 91.9932 431.379 91.8014C431.258 91.604 431.103 91.4205 430.94 91.2287C430.771 91.0407 430.62 90.823 430.417 90.6381C429.671 89.8396 428.659 89.0658 427.454 88.3176C425.038 86.8145 421.75 85.5602 417.832 84.5988C413.908 83.6305 409.33 83.0039 404.255 82.7059C399.176 82.4083 393.59 82.4985 387.63 82.9968C381.672 83.5024 375.33 84.4205 368.773 85.9283C365.497 86.6849 362.169 87.5933 358.826 88.6928C355.482 89.7863 352.123 91.0861 348.823 92.6645C345.539 94.2532 342.276 96.1058 339.393 98.539C337.966 99.7597 336.613 101.122 335.602 102.737C335.1 103.543 334.691 104.41 334.422 105.324C334.18 106.245 334.09 107.204 334.199 108.156C334.342 109.102 334.675 110.006 335.15 110.833C335.65 111.645 336.267 112.375 336.966 113.021C338.362 114.317 340.028 115.279 341.724 116.085C345.146 117.679 348.78 118.612 352.368 119.286C355.966 119.946 359.547 120.321 363.062 120.501C366.578 120.686 370.028 120.693 373.388 120.566C380.112 120.304 386.472 119.53 392.356 118.458C398.238 117.378 403.655 116.001 408.478 114.384C413.299 112.768 417.552 110.966 421.084 109.003C424.613 107.049 427.46 104.978 429.398 102.895C430.365 101.857 431.137 100.847 431.649 99.881C431.798 99.6492 431.885 99.3997 431.998 99.1742C432.107 98.9463 432.207 98.7286 432.272 98.5065C432.345 98.2879 432.42 98.0798 432.485 97.8821C432.539 97.6798 432.572 97.4847 432.612 97.3026C432.708 96.9391 432.718 96.61 432.741 96.3264C432.75 96.185 432.767 96.0546 432.768 95.9355L432.751 95.6145C432.732 95.2314 432.726 95.034 432.726 95.034C432.726 95.034 432.747 95.2294 432.774 95.6131L432.797 95.9362C432.798 96.0566 432.782 96.1868 432.775 96.3295C432.755 96.6142 432.749 96.9444 432.656 97.3105C432.618 97.4939 432.583 97.6922 432.532 97.8956C432.467 98.0948 432.396 98.3055 432.325 98.5254C432.262 98.7488 432.16 98.9697 432.052 99.1991C431.94 99.4259 431.854 99.6783 431.708 99.9112C431.196 100.887 430.426 101.907 429.459 102.954C427.523 105.055 424.679 107.143 421.145 109.112C417.611 111.089 413.352 112.904 408.526 114.533C403.699 116.163 398.281 117.551 392.39 118.639C386.5 119.721 380.131 120.503 373.396 120.77C370.031 120.902 366.574 120.897 363.051 120.714C359.528 120.535 355.939 120.163 352.329 119.502C348.729 118.826 345.078 117.891 341.63 116.285C339.918 115.472 338.238 114.503 336.814 113.185C336.104 112.526 335.474 111.779 334.959 110.947C334.473 110.097 334.123 109.163 333.975 108.184C333.861 107.201 333.958 106.211 334.207 105.264C334.483 104.325 334.901 103.44 335.412 102.619C336.444 100.976 337.81 99.6022 339.25 98.3705C342.157 95.9189 345.433 94.0615 348.728 92.4668C352.039 90.8852 355.408 89.5857 358.76 88.4912C362.112 87.392 365.446 86.4844 368.727 85.7286C375.296 84.2253 381.645 83.3109 387.614 82.8129C393.583 82.3225 399.178 82.2403 404.263 82.5493C409.348 82.8583 413.931 83.4948 417.86 84.4777C421.788 85.4516 425.079 86.7221 427.499 88.2445C428.706 89.0031 429.718 89.7845 430.466 90.592C430.668 90.7786 430.816 90.9997 430.985 91.1892C431.149 91.3822 431.305 91.5688 431.425 91.7693C431.551 91.9629 431.674 92.1479 431.79 92.3229C431.892 92.506 431.976 92.687 432.062 92.8539C432.248 93.1828 432.34 93.5013 432.434 93.7709C432.478 93.9053 432.528 94.0297 432.559 94.1446L432.621 94.4626C432.695 94.8399 432.726 95.034 432.726 95.034Z" fill="#953333"/>
<path d="M419.914 64.7629C419.914 64.7629 419.762 64.6373 419.472 64.3868L419.227 64.1758L418.904 63.9589C418.666 63.8037 418.397 63.6093 418.052 63.4628C417.883 63.3838 417.708 63.2903 417.516 63.2084C417.318 63.1408 417.111 63.069 416.892 62.9941C416.678 62.9092 416.442 62.855 416.196 62.8024C415.95 62.7542 415.697 62.6703 415.425 62.6446C414.347 62.4584 413.075 62.4505 411.663 62.578C408.828 62.8331 405.447 63.8127 401.741 65.4061C398.025 66.9952 393.994 69.2527 389.762 72.0736C385.529 74.8943 381.124 78.3309 376.667 82.3185C372.215 86.3115 367.707 90.8671 363.381 96.0187C361.224 98.596 359.114 101.325 357.107 104.216C355.097 107.104 353.198 110.164 351.516 113.41C349.851 116.658 348.361 120.102 347.525 123.783C347.121 125.616 346.861 127.518 347.027 129.417C347.113 130.363 347.309 131.301 347.643 132.193C348.006 133.072 348.511 133.893 349.171 134.587C349.855 135.256 350.669 135.775 351.544 136.151C352.433 136.496 353.367 136.709 354.313 136.805C356.208 136.996 358.115 136.761 359.955 136.382C363.646 135.595 367.11 134.149 370.38 132.528C373.65 130.886 376.735 129.028 379.647 127.054C382.567 125.086 385.322 123.011 387.929 120.885C393.137 116.627 397.749 112.177 401.799 107.777C405.846 103.372 409.34 99.0117 412.215 94.8163C415.09 90.6209 417.4 86.6202 419.037 82.9262C420.678 79.2402 421.702 75.873 421.993 73.0425C422.14 71.632 422.146 70.3613 421.975 69.2803C421.953 69.0076 421.872 68.7559 421.827 68.5076C421.777 68.2599 421.729 68.0233 421.646 67.808C421.573 67.5894 421.505 67.3791 421.439 67.1812C421.359 66.9891 421.27 66.8126 421.19 66.6434C421.047 66.2966 420.859 66.0246 420.705 65.786L420.494 65.4576L420.285 65.2116C420.039 64.9181 419.914 64.7629 419.914 64.7629C419.914 64.7629 420.049 64.9074 420.302 65.1971L420.515 65.4405L420.735 65.7671C420.891 66.0059 421.085 66.2757 421.231 66.6229C421.31 66.7921 421.403 66.9691 421.484 67.1628C421.552 67.3624 421.623 67.5716 421.699 67.7906C421.783 68.0076 421.834 68.2446 421.886 68.4925C421.932 68.741 422.017 68.9963 422.04 69.2707C422.22 70.3574 422.219 71.6349 422.08 73.0526C421.799 75.8966 420.786 79.2774 419.151 82.9764C417.521 86.6836 415.216 90.6988 412.345 94.9053C409.473 99.1133 405.983 103.486 401.938 107.904C397.886 112.314 393.272 116.775 388.06 121.045C385.45 123.174 382.691 125.257 379.767 127.232C376.849 129.211 373.757 131.075 370.479 132.723C367.198 134.351 363.722 135.805 360.001 136.599C358.145 136.983 356.219 137.222 354.291 137.026C353.327 136.928 352.371 136.712 351.461 136.356C350.56 135.972 349.72 135.436 349.013 134.745C348.33 134.027 347.808 133.18 347.435 132.275C347.092 131.357 346.892 130.399 346.805 129.436C346.637 127.505 346.903 125.583 347.307 123.734C348.152 120.026 349.651 116.568 351.322 113.31C353.01 110.052 354.916 106.987 356.933 104.094C358.944 101.198 361.06 98.4644 363.224 95.8849C367.562 90.7289 372.08 86.173 376.544 82.1801C381.013 78.1926 385.43 74.7606 389.675 71.943C393.918 69.1267 397.961 66.8738 401.689 65.2909C405.411 63.7058 408.807 62.7341 411.655 62.4915C413.074 62.3696 414.352 62.3844 415.435 62.5789C415.71 62.6065 415.962 62.6934 416.21 62.7432C416.458 62.799 416.693 62.8532 416.908 62.9399C417.128 63.018 417.335 63.0912 417.534 63.162C417.726 63.247 417.902 63.3407 418.071 63.4226C418.416 63.5737 418.687 63.7714 418.921 63.9308L419.245 64.1538L419.488 64.3706C419.774 64.6283 419.914 64.7629 419.914 64.7629Z" fill="#953333"/>
<path d="M333.111 120.031C333.833 120.752 333.833 121.924 333.111 122.644C332.39 123.367 331.22 123.367 330.499 122.644C329.777 121.924 329.777 120.752 330.499 120.031C331.22 119.309 332.39 119.309 333.111 120.031Z" fill="#953333"/>
<path d="M437.368 59.9753C437.368 60.9954 436.541 61.8236 435.52 61.8236C434.5 61.8236 433.672 60.9954 433.672 59.9753C433.672 58.9552 434.5 58.1271 435.52 58.1271C436.541 58.1271 437.368 58.9552 437.368 59.9753Z" fill="#953333"/>
<path d="M344.781 128.225C344.781 128.484 344.569 128.694 344.311 128.694C344.052 128.694 343.841 128.484 343.841 128.225C343.841 127.965 344.052 127.754 344.311 127.754C344.569 127.754 344.781 127.965 344.781 128.225Z" fill="#953333"/>
<path d="M354.803 76.4436C354.803 76.7021 354.593 76.9136 354.333 76.9136C354.073 76.9136 353.863 76.7021 353.863 76.4436C353.863 76.1837 354.073 75.9736 354.333 75.9736C354.593 75.9736 354.803 76.1837 354.803 76.4436Z" fill="#953333"/>
<path d="M428.086 101.612C428.086 101.871 427.874 102.082 427.616 102.082C427.357 102.082 427.146 101.871 427.146 101.612C427.146 101.352 427.357 101.142 427.616 101.142C427.874 101.142 428.086 101.352 428.086 101.612Z" fill="#953333"/>
<path d="M434.612 79.72C434.612 79.9799 434.401 80.19 434.143 80.19C433.883 80.19 433.672 79.9799 433.672 79.72C433.672 79.4616 433.883 79.25 434.143 79.25C434.401 79.25 434.612 79.4616 434.612 79.72Z" fill="#953333"/>
<path d="M402.964 97.8778H397.155V80.3306C397.155 75.1545 394.225 70.6495 389.937 68.3871C389.889 68.3614 389.842 68.3372 389.794 68.313C387.953 67.37 385.869 66.8381 383.664 66.8381C379.191 66.8381 375.219 69.0248 372.763 72.3859C372.721 72.4448 372.678 72.5038 372.636 72.5627C371.083 74.7601 370.17 77.4411 370.17 80.3306L370.161 102.316L364.364 97.8778V80.3306C364.364 69.6883 373.022 61.0303 383.664 61.0303C394.305 61.0303 402.964 69.6883 402.964 80.3306V84.8402V85.0064V96.2971V96.557V97.8778Z" fill="#CF3127"/>
<path d="M406.268 131.251H361.057C359.177 131.251 357.654 129.726 357.654 127.848V101.281C357.654 99.4012 359.177 97.8763 361.057 97.8763H364.379H406.268C408.148 97.8763 409.671 99.4012 409.671 101.281V127.848C409.671 129.726 408.148 131.251 406.268 131.251Z" fill="#953333"/>
<path d="M384.849 120.881H382.476V114.379C380.655 113.861 379.314 112.203 379.314 110.216C379.314 107.814 381.262 105.868 383.664 105.868C386.064 105.868 388.01 107.814 388.01 110.216C388.01 112.203 386.67 113.861 384.849 114.379V120.881Z" fill="#CF3127"/>
<path d="M360.428 128.085C360.307 128.085 360.212 122.519 360.212 115.655C360.212 108.789 360.307 103.225 360.428 103.225C360.548 103.225 360.643 108.789 360.643 115.655C360.643 122.519 360.548 128.085 360.428 128.085Z" fill="#FAF9F7"/>
<path d="M380.256 115.789C380.242 115.81 380.053 115.723 379.748 115.501C379.441 115.281 379.033 114.905 378.628 114.358C377.815 113.294 377.073 111.363 377.555 109.277C378.06 107.196 379.59 105.801 380.792 105.215C381.4 104.908 381.932 104.756 382.304 104.697C382.677 104.636 382.889 104.641 382.892 104.666C382.91 104.748 382.066 104.827 380.939 105.482C379.828 106.11 378.439 107.453 377.975 109.375C377.53 111.301 378.167 113.126 378.879 114.184C379.593 115.275 380.309 115.724 380.256 115.789Z" fill="#FAF9F7"/>
<path d="M460.892 189.746H300.729C292.953 189.746 286.648 183.441 286.648 175.664V173.931C286.648 166.154 292.953 159.85 300.729 159.85H460.892C468.669 159.85 474.973 166.154 474.973 173.931V175.664C474.973 183.441 468.669 189.746 460.892 189.746Z" fill="#F2F1EE"/>
<path d="M462.278 230.737H302.115C294.338 230.737 288.034 224.434 288.034 216.657V214.923C288.034 207.147 294.338 200.842 302.115 200.842H462.278C470.055 200.842 476.356 207.147 476.356 214.923V216.657C476.356 224.434 470.055 230.737 462.278 230.737Z" fill="#F2F1EE"/>
<path d="M197.52 582.836L23.3671 586.923L18.0672 474.437C17.5488 463.425 26.3383 454.211 37.3645 454.211H185.743C196.939 454.211 205.791 463.698 205.016 474.866L197.52 582.836Z" fill="#953333"/>
<path d="M206.449 474.053C206.449 474.067 206.284 474.081 205.964 474.094C205.6 474.105 205.128 474.12 204.536 474.138C203.228 474.156 201.389 474.185 199.047 474.22C194.226 474.236 187.342 474.262 178.858 474.292C161.812 474.321 138.262 474.129 112.269 474.732C86.2613 475.596 62.6901 475.448 45.6477 475.19C37.1241 475.055 30.2283 474.889 25.4648 474.746C23.1238 474.666 21.2861 474.602 19.9789 474.558C19.3865 474.53 18.9165 474.507 18.5523 474.489C18.2319 474.469 18.0671 474.452 18.0671 474.437C18.0671 474.424 18.2319 474.415 18.5538 474.407C18.918 474.407 19.3895 474.404 19.9819 474.401C21.2891 474.409 23.1284 474.422 25.4708 474.44C30.2902 474.486 37.1725 474.552 45.6552 474.634C62.6992 474.75 86.2447 474.809 112.249 473.946C138.262 473.342 161.815 473.623 178.859 473.736C187.344 473.81 194.226 473.871 199.047 473.913C201.389 473.942 203.228 473.964 204.536 473.978C205.128 473.993 205.598 474.005 205.964 474.014C206.284 474.028 206.449 474.038 206.449 474.053Z" fill="#0D151D"/>
<path d="M81.593 455.968C81.6413 456.231 76.1358 456.326 70.2857 459.361C64.3918 462.318 61.0852 466.721 60.9008 466.527C60.8313 466.476 61.5461 465.317 63.0589 463.728C64.5626 462.142 66.9368 460.192 69.9276 458.661C72.9214 457.139 75.894 456.36 78.0612 456.074C80.2359 455.779 81.593 455.884 81.593 455.968Z" fill="#066AC9"/>
<path d="M153.221 251.452L174.511 290.34C174.511 290.34 179.109 297.952 180.309 306.031C181.344 313.006 179.269 320.521 176.393 321.501C170.186 323.613 158.43 323.999 151.708 315.589C145.587 307.931 127.776 267.719 127.776 267.719L153.221 251.452Z" fill="#FBA585"/>
<path d="M184.572 581.229L233.18 459.58C233.18 459.58 232.089 438.824 228.265 432.27C224.442 425.716 108.646 387.481 108.646 387.481C108.646 387.481 79.1508 380.379 59.4878 387.481C39.8248 394.581 25.0764 419.16 27.8072 432.816C30.538 446.47 42.0644 456.502 42.0644 456.502L127.216 459.033L173.63 475.965L142.374 565.542L184.572 581.229Z" fill="#066AC9"/>
<path d="M227.808 498.101L228.903 542.103L196.133 542.905L191.412 490.102L227.808 498.101Z" fill="#FBA585"/>
<path d="M208.672 375.939C208.672 375.939 228.305 374.369 230.49 395.672C232.674 416.975 234.82 516.385 234.82 516.385L188.938 520.207L181.838 418.614L108.648 387.482C108.648 387.482 195.562 373.208 208.672 375.939Z" fill="#066AC9"/>
<path d="M127.745 347.194C127.745 347.194 139.66 380.6 137.392 384.324C135.122 388.048 104.481 403.369 104.481 403.369L27.8087 432.816C27.8087 432.816 19.9335 420.289 19.9335 401.047C19.9335 381.806 46.6028 347.194 46.6028 347.194H127.745Z" fill="#066AC9"/>
<path d="M105.019 385.776C105.015 385.788 105.135 385.853 105.379 385.97C105.658 386.1 106.018 386.264 106.467 386.473C107.478 386.923 108.897 387.555 110.713 388.362C114.478 390.002 119.884 392.358 126.651 395.306C140.327 401.192 159.495 409.444 181.676 418.992L181.428 418.643C182.124 428.678 182.876 439.517 183.653 450.73C185.518 476.941 187.238 501.109 188.598 520.231L188.622 520.578L188.967 520.547C202.922 519.323 214.372 518.318 222.393 517.614C226.336 517.245 229.431 516.957 231.595 516.754C232.613 516.648 233.411 516.565 234.001 516.505C234.543 516.443 234.821 516.402 234.82 516.385C234.818 516.367 234.537 516.373 233.992 516.402C233.401 516.438 232.601 516.488 231.578 516.553C229.411 516.713 226.308 516.94 222.359 517.229C214.336 517.862 202.875 518.766 188.909 519.869L189.279 520.185C187.966 501.058 186.307 476.887 184.507 450.67C183.718 439.459 182.955 428.62 182.248 418.586L182.229 418.335L182 418.236C159.771 408.8 140.559 400.647 126.855 394.829C120.047 391.975 114.61 389.695 110.824 388.106C108.985 387.351 107.547 386.761 106.523 386.341C106.062 386.16 105.696 386.015 105.407 385.903C105.155 385.809 105.024 385.764 105.019 385.776Z" fill="#283C46"/>
<path d="M44.0427 389.118C44.0623 389.173 44.827 388.96 46.1947 388.53C47.7166 388.038 49.654 387.414 51.9677 386.669C56.8385 385.123 63.5969 382.971 71.2877 381.786C78.9785 380.6 86.095 380.967 91.0656 382.04C96.0588 383.074 98.9287 384.499 98.9921 384.337C99.0133 384.294 98.3181 383.902 96.9973 383.329C95.6779 382.751 93.7058 382.051 91.1955 381.451C86.1903 380.207 78.9453 379.737 71.1592 380.94C63.3762 382.138 56.6058 384.401 51.7743 386.095C49.3563 386.953 47.4158 387.689 46.0829 388.215C44.75 388.744 44.023 389.063 44.0427 389.118Z" fill="#283C46"/>
<path d="M54.8784 371.508C54.8996 371.643 57.4461 371.147 61.5824 371.469C63.6468 371.614 66.1041 371.931 68.8395 372.247C71.5718 372.572 74.5702 372.941 77.6743 373.529C83.9037 374.638 89.2626 376.807 92.6977 379.101C96.1646 381.357 97.7877 383.415 97.9071 383.298C97.9403 383.27 97.5897 382.72 96.7933 381.856C95.9983 380.996 94.7667 379.804 93.0363 378.599C89.6208 376.125 84.1395 373.807 77.833 372.687C74.6896 372.092 71.667 371.746 68.9256 371.463C66.1857 371.191 63.7133 370.934 61.6141 370.866C59.518 370.79 57.8133 370.91 56.6527 371.087C55.4905 371.263 54.8678 371.457 54.8784 371.508Z" fill="#283C46"/>
<path d="M104.025 116.605L68.838 124.059C65.4346 124.286 62.7702 127.08 62.7053 130.491L63.1284 206.637C63.1571 211.839 64.8996 216.887 68.0869 220.997L71.4419 225.325C79.0934 235.193 94.5914 234.198 100.435 223.164C100.843 222.394 101.126 221.718 101.245 221.173C101.363 220.486 101.546 220.035 101.578 219.453L102.247 212.029C102.59 205.248 102.637 198.36 102.639 198.424C102.639 198.424 117.038 196.604 120.727 178.05C122.562 168.824 122.687 153.584 122.386 141.112C122.114 129.886 115.229 115.857 104.025 116.605Z" fill="#FBA585"/>
<path d="M102.734 193.749C102.734 193.749 89.0586 194.023 76.9066 186.061C76.9066 186.061 80.1799 195.978 86.5212 199.589C90.2782 201.727 95.4588 203.309 102.435 202.929L102.734 193.749Z" fill="#FB7E53"/>
<path d="M156.136 252.209C156.136 252.209 142.421 229.339 138.616 224.715C135.048 220.379 130.449 217.822 127.381 216.479C125.673 215.732 123.878 215.218 122.042 214.899L102.318 210.532C102.318 210.532 102.284 223.994 88.1791 224.827C74.073 225.66 62.196 206.01 62.196 206.01C62.196 206.01 39.4077 209.534 33.955 212.339C28.5024 215.144 19.9351 218.706 15.2199 242.317L11.9103 265.415L51.2016 269.046L54.9616 327.434L74.4478 341.002C74.4478 341.002 128.471 355.049 131.923 355.977C135.374 356.907 136.517 269.046 136.517 269.046C136.517 269.046 150.393 260.076 156.136 252.209Z" fill="#F16623"/>
<path d="M130.275 242.389C130.327 242.369 130.593 242.969 131.034 244.073C131.483 245.173 132.055 246.796 132.693 248.823C133.973 252.874 135.377 258.603 136.172 265.049C136.957 271.501 136.975 277.399 136.71 281.64C136.58 283.761 136.417 285.472 136.246 286.648C136.085 287.825 135.97 288.472 135.915 288.466C135.861 288.46 135.873 287.801 135.941 286.621C136.016 285.439 136.097 283.728 136.154 281.615C136.276 277.393 136.168 271.546 135.391 265.146C134.602 258.749 133.296 253.05 132.16 248.98C131.595 246.944 131.105 245.301 130.745 244.174C130.395 243.044 130.224 242.407 130.275 242.389Z" fill="#283C46"/>
<path d="M54.7152 321.924L51.203 269.235L14.1469 266.006C14.1469 266.006 15.365 302.155 16.6299 312.9C18.4495 328.357 29.9426 349.004 36.7085 353.568C38.0082 354.445 44.3102 346.693 47.5881 338.369C51.1003 329.451 54.7152 321.924 54.7152 321.924Z" fill="#FBA585"/>
<path d="M93.6439 102.636C84.9119 100.676 76.9886 103.662 69.2983 108.237C61.6078 112.814 55.6198 120.015 51.9512 128.178C48.0888 136.775 46.7418 146.607 48.8826 155.786C51.0233 164.965 56.7891 173.384 64.9578 178.088C76.113 184.51 90.8753 183.248 101.536 176.036C112.194 168.821 118.731 156.311 119.897 143.493C120.701 134.662 119.06 125.497 114.502 117.893C109.942 110.286 102.339 104.382 93.6439 102.636Z" fill="#0D151D"/>
<path d="M67.0156 131.279C68.4814 127.977 68.181 124.187 68.8771 120.641C70.4129 112.834 77.0811 106.859 84.5722 104.177C91.542 101.681 99.8385 102.742 107.914 105.829C113.449 107.945 118.581 111.397 122.096 116.168C126.759 122.501 128.065 131.169 125.473 138.595L85.5341 130.622C81.6021 133.54 77.5782 136.508 72.9156 138.007C71.5471 138.447 70.0858 138.753 68.6805 138.454C67.2752 138.154 65.9479 137.119 65.6845 135.707C65.3978 134.164 66.3789 132.714 67.0156 131.279Z" fill="#0D151D"/>
<path d="M108.19 116.986L72.6613 122.585C69.2508 122.633 66.4436 125.284 66.1999 128.687L63.9232 180.037C69.0818 185.724 82.1705 192.531 88.7582 195.585C94.4358 198.216 102.517 198.586 102.517 198.619C102.517 198.619 116.992 197.557 121.649 179.222C123.964 170.105 124.889 154.893 125.242 142.422C125.559 131.197 119.419 116.827 108.19 116.986Z" fill="#FBA585"/>
<path d="M119.149 156.414C119.078 157.678 117.949 158.66 116.627 158.61C115.309 158.561 114.295 157.497 114.364 156.232C114.435 154.969 115.564 153.986 116.883 154.035C118.204 154.085 119.22 155.151 119.149 156.414Z" fill="#0D151D"/>
<path d="M121.23 150.011C120.906 150.295 119.221 148.792 116.652 148.563C114.091 148.298 112.086 149.448 111.836 149.108C111.712 148.956 112.064 148.422 112.939 147.899C113.801 147.378 115.231 146.927 116.83 147.08C118.429 147.234 119.719 147.946 120.437 148.62C121.17 149.298 121.389 149.885 121.23 150.011Z" fill="#0D151D"/>
<path d="M96.1174 154.625C96.048 155.89 94.919 156.871 93.5974 156.822C92.2789 156.771 91.2647 155.71 91.3356 154.445C91.405 153.182 92.5341 152.199 93.8527 152.248C95.1742 152.298 96.1884 153.361 96.1174 154.625Z" fill="#0D151D"/>
<path d="M96.832 148.104C96.5069 148.386 94.8197 146.884 92.253 146.656C89.6912 146.391 87.6877 147.54 87.4377 147.2C87.314 147.049 87.6629 146.514 88.5408 145.992C89.4035 145.471 90.8331 145.019 92.4323 145.171C94.0313 145.326 95.3226 146.039 96.0409 146.712C96.7727 147.389 96.99 147.977 96.832 148.104Z" fill="#0D151D"/>
<path d="M103.524 168.074C103.526 167.927 105.146 167.797 107.763 167.703C108.425 167.696 109.057 167.623 109.208 167.186C109.406 166.726 109.195 165.994 108.948 165.203C108.477 163.559 107.985 161.839 107.467 160.033C105.425 152.68 104.012 146.657 104.308 146.577C104.604 146.497 106.501 152.393 108.542 159.748C109.03 161.559 109.496 163.286 109.939 164.939C110.12 165.707 110.47 166.591 110.045 167.543C109.823 168.017 109.309 168.329 108.878 168.403C108.446 168.494 108.077 168.467 107.751 168.456C105.136 168.358 103.521 168.221 103.524 168.074Z" fill="#0D151D"/>
<path d="M101.873 174.165C101.062 172.858 99.5042 172.038 97.882 172.065C96.7567 172.082 95.5837 172.516 94.8235 173.362C94.0633 174.207 93.8026 175.484 94.3399 176.405C94.9437 177.444 96.3702 177.8 97.6265 177.565C98.8844 177.328 100.013 176.617 101.088 175.905C101.385 175.707 101.691 175.504 101.891 175.213C102.092 174.925 102.164 174.53 101.974 174.258" fill="#FB7E53"/>
<path d="M95.8054 169.158C96.2254 169.172 95.9746 171.96 98.1793 174.155C100.378 176.359 103.379 176.319 103.365 176.71C103.387 176.888 102.654 177.192 101.397 177.11C100.163 177.041 98.4038 176.481 97.0548 175.138C95.7105 173.791 95.2325 172.115 95.2416 170.962C95.2412 169.788 95.6165 169.125 95.8054 169.158Z" fill="#0D151D"/>
<path d="M97.0896 140.46C96.7726 141.135 94.2387 140.569 91.1939 140.656C88.1461 140.683 85.6372 141.342 85.2952 140.679C85.1452 140.364 85.6287 139.745 86.6719 139.159C87.7075 138.573 89.3181 138.075 91.1451 138.04C92.9719 138.007 94.6015 138.445 95.6578 138.992C96.7233 139.539 97.229 140.139 97.0896 140.46Z" fill="#0D151D"/>
<path d="M121.511 138.718C121.006 139.259 119.294 138.491 117.169 138.269C115.053 137.972 113.205 138.3 112.846 137.653C112.691 137.341 113.027 136.782 113.865 136.302C114.691 135.824 116.031 135.493 117.488 135.671C118.945 135.85 120.163 136.495 120.848 137.159C121.546 137.827 121.737 138.451 121.511 138.718Z" fill="#0D151D"/>
<path d="M60.8593 125.516C65.0642 115.007 81.7348 101.263 92.9387 102.865L110.139 114.955C108.606 121.003 103.488 125.997 97.4025 127.378C94.1525 128.115 90.3047 128.104 88.2161 130.702C86.0838 133.353 86.9163 137.501 84.9106 140.25C82.1303 144.061 75.3364 143.378 73.1556 147.56C72.2032 149.386 72.4646 151.67 71.4797 153.481C70.1666 155.893 63.6263 158.596 61.0752 157.58C58.5257 156.562 58.8408 152.117 58.1551 149.726C56.9849 145.641 57.7356 143.621 58.3771 141.433C59.8962 136.251 58.8527 130.528 60.8593 125.516Z" fill="#0D151D"/>
<path d="M68.6197 160.338C68.7424 158.952 67.44 155.539 66.0913 155.201C62.4901 154.296 55.8779 153.987 54.9673 163.261C53.7237 175.936 66.7057 174.572 66.764 174.21C66.8106 173.928 68.193 165.122 68.6197 160.338Z" fill="#FBA585"/>
<path d="M63.3632 169.027C63.3111 168.982 63.1277 169.16 62.7392 169.295C62.3586 169.425 61.7202 169.478 61.0844 169.166C59.7929 168.543 58.8752 166.307 59.0378 164.016C59.1183 162.858 59.4683 161.784 59.9664 160.914C60.4444 160.025 61.1063 159.437 61.7932 159.383C62.4789 159.294 62.9168 159.743 63.0365 160.116C63.1729 160.488 63.0662 160.732 63.1314 160.76C63.1627 160.796 63.4241 160.574 63.3734 160.04C63.3461 159.783 63.2263 159.469 62.9531 159.196C62.6726 158.92 62.2381 158.75 61.7627 158.754C60.7789 158.726 59.8115 159.541 59.2635 160.494C58.6626 161.448 58.2423 162.652 58.1514 163.952C57.982 166.514 59.0544 169.034 60.8346 169.743C61.7032 170.063 62.4746 169.867 62.8879 169.606C63.3109 169.332 63.4056 169.055 63.3632 169.027Z" fill="#FB7E53"/>
<path d="M58.3113 122.075C58.5608 118.102 53.732 115.243 49.9067 114.138C46.0829 113.036 41.9268 113.996 38.3387 115.724C36.2397 116.734 34.1022 118.216 33.5267 120.473C32.9497 122.729 35.0029 125.563 37.2235 124.86C32.9756 126.069 30.5672 131.531 32.5389 135.483C34.5107 139.435 40.3231 140.795 43.8424 138.129C42.5631 141.713 40.0174 144.832 36.7617 146.802C43.2505 148.078 50.3379 145.649 54.681 140.665C59.0242 135.68 60.4604 128.329 58.3113 122.075Z" fill="#0D151D"/>
<path d="M48.429 141.825C48.3378 141.834 48.074 140.373 48.1539 137.985C48.2275 135.603 48.7553 132.296 50.0992 128.892C51.4537 125.49 53.3366 122.718 54.9133 120.933C56.4906 119.138 57.6825 118.257 57.7424 118.326C57.9677 118.502 53.4841 122.501 50.882 129.202C48.1866 135.863 48.7153 141.849 48.429 141.825Z" fill="#953333"/>
<path d="M106.649 110.919C107.547 116.154 115.063 123.201 118.303 127.41C124.486 135.44 125.65 138.061 124.683 155.238C128.105 149.467 130.79 143.779 130.903 137.071C131.016 130.364 128.902 123.528 124.501 118.466C120.099 113.404 113.329 110.307 106.649 110.919Z" fill="#0D151D"/>
<path d="M167.028 361.247C166.403 362.219 165.257 362.774 164.12 362.554C163.895 362.51 163.661 362.442 163.423 362.336C161.851 361.644 162.351 358.346 162.351 358.346L154.688 356.253C154.688 356.253 143.862 361.725 139.799 365.681C135.736 369.636 126.902 365.158 126.902 365.158L117.807 352.074L141.174 336.733C141.174 336.733 140.211 337.414 141.456 335.091C142.701 332.766 147.114 334.158 147.114 334.158C147.943 333.031 150.934 332.911 150.934 332.911L163.37 335.685C165.933 336.256 168.099 337.958 169.262 340.311L173.699 349.298C173.699 349.298 175.872 355.661 175.273 357.023C174.366 359.081 172.165 358.37 172.165 358.37C172.165 358.37 171.127 362.293 170.065 362.322C169.003 362.351 167.028 361.247 167.028 361.247Z" fill="#FBA585"/>
<path d="M141.489 346.496C141.488 346.628 143.179 346.648 145.856 347.046C148.523 347.46 152.187 348.322 155.928 350.051C157.798 350.907 159.504 351.881 160.987 352.87C162.417 353.888 163.931 354.757 164.301 355.917C164.489 356.485 164.321 357.025 164.007 357.404C163.698 357.78 163.306 358.01 162.972 358.108C162.282 358.311 161.874 358.078 161.851 358.152C161.819 358.166 162.205 358.54 163.042 358.412C163.447 358.347 163.93 358.133 164.346 357.703C164.767 357.296 165.066 356.52 164.849 355.762C164.654 354.998 164.089 354.366 163.469 353.827C162.831 353.307 162.162 352.772 161.405 352.257C159.913 351.212 158.177 350.193 156.263 349.318C152.434 347.547 148.656 346.755 145.927 346.482C143.184 346.223 141.484 346.406 141.489 346.496Z" fill="#FB7E53"/>
<path d="M139.766 354.429C139.756 354.67 144.9 354.993 151.155 356.023C157.416 357.032 162.398 358.355 162.464 358.125C162.493 358.022 161.282 357.561 159.27 356.987C157.258 356.409 154.439 355.742 151.284 355.227C148.131 354.716 145.247 354.452 143.157 354.36C141.065 354.268 139.771 354.323 139.766 354.429Z" fill="#FB7E53"/>
<path d="M166.988 360.921C167.031 360.916 167.136 360.459 167.288 359.597C167.432 358.734 167.616 357.483 167.683 355.909C167.712 355.125 167.718 354.258 167.599 353.32C167.498 352.38 167.161 351.364 166.652 350.447C165.698 348.61 164.308 346.666 162.442 345.121C160.582 343.591 158.7 342.269 156.741 341.445C154.797 340.625 152.936 340.279 151.39 340.046C149.839 339.827 148.582 339.73 147.713 339.672C146.843 339.616 146.36 339.612 146.353 339.666C146.335 339.795 148.252 340.062 151.295 340.608C152.807 340.91 154.607 341.307 156.446 342.128C158.272 342.932 160.12 344.255 161.917 345.734C163.717 347.232 165.019 349.016 165.998 350.801C167.049 352.518 167.084 354.363 167.112 355.901C167.094 358.979 166.814 360.907 166.988 360.921Z" fill="#FB7E53"/>
<path d="M151.206 336.173C151.194 336.294 153.072 336.54 156.043 337.203C158.892 337.952 163.505 338.65 165.725 342.921C168.203 346.852 170.275 350.539 171.043 353.463C171.877 356.376 171.573 358.298 171.74 358.3C171.782 358.306 171.904 357.84 171.952 356.975C172.006 356.11 171.953 354.838 171.594 353.322C170.94 350.251 168.899 346.439 166.406 342.485C165.769 341.491 165.067 340.537 164.219 339.755C163.376 338.958 162.351 338.439 161.403 338.052C159.476 337.283 157.669 336.927 156.156 336.644C153.122 336.118 151.215 336.071 151.206 336.173Z" fill="#FB7E53"/>
<path d="M142.836 363.287C142.85 363.307 143.126 363.139 143.643 362.795C144.228 362.419 144.986 361.932 145.929 361.324C147.94 360.081 150.917 358.326 154.802 356.494L154.62 356.51C156.903 357.151 159.479 357.873 162.269 358.654L162.037 358.297C161.952 358.933 161.923 359.559 161.981 360.218C162.045 360.866 162.175 361.573 162.668 362.187C162.927 362.488 163.319 362.69 163.652 362.769C163.99 362.894 164.364 362.968 164.743 362.949C165.496 362.92 166.238 362.602 166.794 362.08C166.937 361.952 167.062 361.805 167.181 361.654L167.266 361.537L167.307 361.479L167.327 361.447L167.33 361.446C167.435 361.418 166.427 361.669 166.855 361.563L166.863 361.567L166.879 361.576L167.115 361.702C167.431 361.867 167.753 362.021 168.085 362.164C168.418 362.308 168.759 362.44 169.124 362.545C169.308 362.596 169.495 362.642 169.697 362.667C169.886 362.695 170.114 362.725 170.433 362.603C170.905 362.335 171.102 361.982 171.305 361.653C171.499 361.314 171.663 360.971 171.804 360.622C172.097 359.921 172.328 359.213 172.538 358.469L172.049 358.736C173.041 359.019 174.258 358.901 175.057 358.05C175.418 357.654 175.733 357.149 175.759 356.538C175.791 355.989 175.718 355.497 175.641 355C175.296 353.031 174.718 351.116 174.081 349.169L174.074 349.146L174.06 349.12C173.306 347.591 172.505 345.969 171.695 344.326C171.191 343.305 170.69 342.294 170.194 341.289C169.692 340.312 169.263 339.231 168.509 338.322C167.786 337.419 166.882 336.677 165.88 336.148C164.889 335.589 163.747 335.356 162.74 335.143C158.619 334.236 154.689 333.37 151.014 332.561L150.964 332.551L150.921 332.554C150.179 332.602 149.479 332.699 148.782 332.882C148.102 333.077 147.379 333.3 146.841 333.956L147.293 333.866C146.017 333.18 144.474 333.012 143.226 333.666C141.972 334.315 141.3 335.506 140.89 336.645L141.002 336.49C136.492 339.763 132.81 342.434 130.176 344.345C128.96 345.25 120.338 349.847 119.604 350.393C118.942 350.899 118.599 351.176 118.617 351.199C118.634 351.224 119.009 350.993 119.705 350.534C120.462 350.021 129.115 345.467 130.37 344.617C133.04 342.76 136.775 340.161 141.349 336.978L141.423 336.928L141.461 336.824C141.834 335.821 142.486 334.737 143.517 334.241C144.524 333.705 145.873 333.867 146.941 334.452L147.204 334.595L147.391 334.361C147.706 333.97 148.336 333.717 148.958 333.559C149.589 333.399 150.278 333.307 150.951 333.27L150.859 333.262C154.528 334.09 158.453 334.978 162.57 335.908C163.62 336.136 164.602 336.338 165.509 336.849C166.414 337.331 167.231 338.004 167.883 338.821C168.551 339.616 168.954 340.633 169.471 341.644C169.967 342.649 170.468 343.664 170.971 344.683C171.783 346.325 172.585 347.947 173.34 349.476L173.321 349.428C173.949 351.333 174.528 353.254 174.862 355.127C174.937 355.593 175 356.069 174.976 356.484C174.98 356.846 174.758 357.214 174.492 357.512C173.973 358.105 173.038 358.21 172.284 358.005L171.899 357.899L171.796 358.271C171.602 358.973 171.376 359.675 171.107 360.332C170.851 360.956 170.486 361.708 170.115 361.932C170.096 361.939 169.958 361.967 169.794 361.933C169.642 361.917 169.481 361.877 169.323 361.835C169.002 361.746 168.684 361.625 168.371 361.493C168.057 361.361 167.748 361.216 167.447 361.062L167.225 360.946L167.212 360.937L167.206 360.935C167.633 360.827 166.621 361.078 166.726 361.054L166.722 361.057L166.708 361.08L166.676 361.128L166.609 361.223L166.307 361.557C165.869 361.976 165.291 362.226 164.714 362.251C164.423 362.271 164.142 362.214 163.863 362.112C163.556 362.037 163.358 361.927 163.182 361.739C162.52 360.887 162.559 359.495 162.67 358.394L162.699 358.107L162.439 358.037C159.637 357.291 157.053 356.606 154.76 355.998L154.661 355.971L154.578 356.012C150.684 357.925 147.746 359.757 145.771 361.08C144.787 361.75 144.045 362.292 143.555 362.676C143.066 363.059 142.821 363.268 142.836 363.287Z" fill="#FB7E53"/>
<path d="M53.2453 323.241C51.6971 322.603 44.134 320.478 35.4282 328.301C26.8785 335.983 31.1941 351.409 32.6239 353.175C34.0536 354.94 52.8553 357.675 52.8553 357.675L126.826 365.496L125.23 347.237C125.23 347.237 54.7935 323.879 53.2453 323.241Z" fill="#FCA586"/>
<path d="M215.294 284.702L180.258 292.311C180.258 292.311 164.217 295.829 160.525 305.116C157.077 313.793 162.748 320.679 165.372 321.468C166.683 321.863 170.888 323.128 173.621 322.569C174.929 322.301 228.252 293.433 228.252 293.433L215.294 284.702Z" fill="#FCA586"/>
<path d="M274.222 271.661C274.225 270.779 273.766 269.957 273.013 269.498L260.223 261.722C259.088 261.058 257.722 260.907 256.469 261.31L202.703 278.586L203.705 281.108L216.752 291.058L274.219 272.403L274.222 271.661Z" fill="#0D151D"/>
<path d="M262.2 269.804C262.27 270.218 262.775 270.479 263.328 270.385C263.881 270.291 264.272 269.879 264.202 269.465C264.131 269.049 263.627 268.79 263.073 268.884C262.52 268.977 262.129 269.39 262.2 269.804Z" fill="#FEFEFE"/>
<path d="M274.219 272.403C274.186 272.455 273.268 271.966 271.637 271.036C269.886 270.01 267.571 268.655 264.772 267.016C263.317 266.15 261.74 265.209 260.054 264.206C259.277 263.682 258.33 263.533 257.426 263.807C256.426 264.133 255.398 264.467 254.345 264.811C250.103 266.18 245.463 267.678 240.594 269.249C230.825 272.377 221.971 275.161 215.548 277.132C212.44 278.067 209.87 278.838 207.925 279.422C206.119 279.944 205.115 280.204 205.096 280.145C205.077 280.087 206.047 279.714 207.82 279.089C209.742 278.437 212.283 277.573 215.355 276.529C221.73 274.403 230.555 271.526 240.323 268.399C245.199 266.85 249.848 265.378 254.096 264.03C255.156 263.696 256.191 263.37 257.2 263.054C258.317 262.711 259.577 262.968 260.425 263.564C262.091 264.603 263.652 265.575 265.091 266.471C267.834 268.21 270.101 269.65 271.817 270.738C273.394 271.762 274.251 272.351 274.219 272.403Z" fill="#283C46"/>
<path d="M250.778 275.146C250.778 275.146 249.903 274.128 247.059 276.476C244.216 278.825 235.86 285.397 235.86 285.397L232.811 278.172L225.377 273.578C225.377 273.578 222.808 273.738 223.286 275.35C223.762 276.96 227.392 281.176 227.392 281.176L226.86 288.231L221.395 276.579C221.395 276.579 217.759 274.92 217.147 277.465C216.537 280.011 217.938 290.673 217.938 290.673L213.711 286.667L211.001 279.055C211.001 279.055 209.296 277.792 208.771 279.692C208.244 281.589 209.699 291.18 209.699 291.18L213.787 299.957C213.787 299.957 217.709 302.667 218.945 301.872C220.181 301.076 221.528 299.606 221.528 299.606C221.528 299.606 223.915 300.671 225.053 300.019C226.191 299.367 227.178 297.673 227.178 297.673C227.178 297.673 229.814 300.714 231.589 299.311C233.364 297.909 235.788 294.274 236.551 292.703C237.313 291.133 248.898 280.205 249.074 279.733C249.25 279.26 253.364 275.904 250.778 275.146Z" fill="#FBA585"/>
<path d="M219.17 302.079C219.128 302.177 218.242 301.931 216.963 301.193C215.687 300.458 214.058 299.164 212.675 297.366C211.297 295.565 210.471 293.655 210.093 292.233C209.71 290.805 209.703 289.886 209.809 289.871C210.079 289.8 210.709 293.395 213.383 296.824C215.998 300.293 219.308 301.836 219.17 302.079Z" fill="#FB7E53"/>
<path d="M219.543 298.353C219.309 298.424 218.622 296.822 218.199 294.732C217.771 292.644 217.779 290.902 218.019 290.876C218.267 290.848 218.654 292.509 219.073 294.555C219.488 296.601 219.783 298.283 219.543 298.353Z" fill="#FB7E53"/>
<path d="M227.839 295.418C227.609 295.49 226.917 293.91 226.622 291.825C226.321 289.741 226.541 288.031 226.782 288.037C227.035 288.04 227.215 289.691 227.506 291.699C227.789 293.707 228.079 295.345 227.839 295.418Z" fill="#FB7E53"/>
<path d="M235.397 293.763C235.149 293.692 235.502 291.871 235.556 289.619C235.627 287.367 235.374 285.53 235.626 285.472C235.852 285.407 236.52 287.256 236.448 289.644C236.389 292.031 235.618 293.84 235.397 293.763Z" fill="#FB7E53"/>
<path d="M267.333 297.49L169.888 298.282C166.728 298.282 163.707 299.799 163.234 302.924L152.584 373.947H102.392C100.777 373.947 99.4667 375.256 99.4667 376.872C99.4667 378.489 100.777 379.799 102.392 379.799H151.708H161.069H262.7L273.655 304.841C274.241 300.973 271.246 297.49 267.333 297.49Z" fill="#D9D9D1"/>
<path d="M267.333 297.49C267.333 297.49 267.863 297.423 268.868 297.635C269.845 297.862 271.38 298.464 272.591 300.104C273.195 300.905 273.653 301.975 273.795 303.211C273.954 304.467 273.594 305.79 273.437 307.221C273.029 310.091 272.559 313.396 272.032 317.11C269.887 332.001 266.795 353.459 262.996 379.841L262.959 380.101H262.698C221.217 380.125 166.706 380.157 107.179 380.194C105.781 380.194 104.384 380.194 102.992 380.194C102.347 380.221 101.448 380.183 100.778 379.77C100.086 379.39 99.5483 378.752 99.2793 378.011C98.6959 376.526 99.3926 374.706 100.792 373.969C101.46 373.564 102.35 373.53 102.988 373.555H105.049C110.54 373.556 115.974 373.556 121.338 373.556C132.066 373.561 142.515 373.564 152.584 373.567L152.21 373.892C156.042 348.457 159.619 324.729 162.826 303.443C162.938 302.095 163.547 300.636 164.629 299.731C165.687 298.792 167.026 298.297 168.356 298.09C169.712 297.883 171.001 297.993 172.284 297.949C173.57 297.94 174.845 297.933 176.11 297.923C181.17 297.889 186.065 297.855 190.782 297.824C200.212 297.765 208.933 297.709 216.852 297.659C232.674 297.577 245.287 297.514 253.969 297.469C258.285 297.461 261.617 297.455 263.898 297.45C265.013 297.456 265.864 297.461 266.463 297.464C267.038 297.469 267.333 297.49 267.333 297.49C267.333 297.49 267.04 297.514 266.463 297.531C265.866 297.543 265.013 297.562 263.899 297.585C261.619 297.618 258.285 297.665 253.97 297.727C245.287 297.824 232.675 297.964 216.855 298.14C208.935 298.218 200.213 298.304 190.783 298.398C186.066 298.443 181.173 298.492 176.113 298.539C174.848 298.552 173.573 298.563 172.287 298.573C171.005 298.617 169.686 298.519 168.454 298.714C167.216 298.909 165.989 299.379 165.057 300.213C164.099 301.047 163.592 302.209 163.472 303.541C160.295 324.83 156.756 348.561 152.961 374.003L152.912 374.327H152.584C142.515 374.33 132.066 374.333 121.338 374.337C115.974 374.337 110.54 374.339 105.049 374.34H102.988C102.261 374.319 101.717 374.348 101.171 374.655C100.104 375.22 99.5724 376.609 100.018 377.742C100.222 378.304 100.633 378.796 101.162 379.084C101.711 379.396 102.256 379.426 102.992 379.405C104.384 379.405 105.781 379.405 107.179 379.405C166.706 379.441 221.217 379.473 262.698 379.498L262.4 379.755C266.311 353.388 269.491 331.943 271.698 317.061C272.255 313.35 272.751 310.05 273.182 307.181C273.354 305.747 273.721 304.429 273.579 303.234C273.455 302.039 273.026 300.994 272.449 300.205C271.294 298.594 269.802 297.972 268.847 297.719C267.863 297.484 267.33 297.528 267.333 297.49Z" fill="#0D151D"/>
<path d="M208.377 337.741C208.377 341.109 211.108 343.842 214.478 343.842C217.847 343.842 220.579 341.109 220.579 337.741C220.579 334.371 217.847 331.641 214.478 331.641C211.108 331.641 208.377 334.371 208.377 337.741Z" fill="#FEFEFE"/>
<path d="M156.533 379.142C156.671 379.166 159.774 361.081 163.461 338.755C167.149 316.421 170.027 298.303 169.888 298.28C169.751 298.256 166.65 316.34 162.961 338.673C159.275 360.999 156.396 379.121 156.533 379.142Z" fill="#0D151D"/>
<path d="M322.925 177.376L324.738 177.408L324.864 170.23L322.929 170.197L322.841 175.289C322.591 175.723 322.134 175.942 321.484 175.93C320.804 175.918 320.478 175.55 320.491 174.794L320.572 170.156L318.653 170.122L318.571 174.821C318.556 175.683 318.756 176.336 319.157 176.781C319.557 177.227 320.127 177.463 320.898 177.477C321.744 177.492 322.399 177.216 322.892 176.65L322.925 177.376Z" fill="black" stroke="black" stroke-width="0.01" stroke-linejoin="round"/>
<path d="M329.82 176.061C329.621 176.193 329.348 176.264 328.97 176.257C328.577 176.251 328.277 176.155 328.038 175.969C327.814 175.784 327.683 175.509 327.674 175.177L325.861 175.145C325.853 175.583 325.967 175.978 326.232 176.361C326.498 176.743 326.855 177.037 327.32 177.256C327.785 177.491 328.312 177.606 328.916 177.617C329.808 177.632 330.537 177.434 331.103 177.05C331.669 176.652 331.965 176.128 331.977 175.464C331.992 174.557 331.49 173.898 330.484 173.503C330.154 173.391 329.763 173.263 329.281 173.164C328.814 173.065 328.469 172.939 328.274 172.814C328.065 172.675 327.977 172.507 327.981 172.295C327.985 172.069 328.079 171.874 328.248 171.741C328.432 171.593 328.69 171.522 329.007 171.527C329.385 171.534 329.655 171.629 329.834 171.814C330.012 171.998 330.083 172.226 330.079 172.498L331.998 172.532C332.009 171.852 331.747 171.288 331.211 170.84C330.674 170.408 329.953 170.183 329.031 170.167C328.185 170.152 327.486 170.352 326.95 170.766C326.414 171.18 326.147 171.719 326.136 172.354C326.117 173.442 326.951 174.182 328.652 174.574C329.164 174.689 329.539 174.816 329.764 174.956C330.003 175.097 330.106 175.28 330.101 175.521C330.097 175.748 330.004 175.928 329.82 176.061Z" fill="black" stroke="black" stroke-width="0.01" stroke-linejoin="round"/>
<path d="M338.121 177.43C338.608 177.212 339.007 176.901 339.301 176.498L338.383 175.424C337.95 175.961 337.371 176.208 336.631 176.195C336.148 176.186 335.757 176.043 335.46 175.751C335.147 175.473 334.957 175.092 334.905 174.623L339.484 174.703L339.497 173.917C339.517 172.769 339.261 171.887 338.697 171.258C338.149 170.629 337.384 170.313 336.401 170.296C335.737 170.284 335.16 170.425 334.641 170.719C334.121 171.027 333.721 171.458 333.424 172.012C333.142 172.582 332.995 173.229 332.982 173.939L332.979 174.136C332.96 175.209 333.278 176.076 333.916 176.737C334.57 177.383 335.425 177.73 336.483 177.749C337.072 177.759 337.618 177.648 338.121 177.43ZM337.305 172.201C337.513 172.446 337.628 172.781 337.62 173.204L337.618 173.355L334.958 173.309C335.027 172.826 335.185 172.466 335.431 172.214C335.662 171.961 335.982 171.83 336.359 171.837C336.767 171.844 337.083 171.97 337.305 172.201Z" fill="black" stroke="black" stroke-width="0.01" stroke-linejoin="round"/>
<path d="M344.718 170.516C344.522 170.468 344.326 170.434 344.115 170.43C343.435 170.419 342.9 170.742 342.496 171.385L342.465 170.538L340.652 170.506L340.527 177.683L342.446 177.717L342.528 173.018C342.763 172.523 343.236 172.289 343.961 172.302C344.157 172.305 344.399 172.325 344.655 172.375L344.718 170.516Z" fill="black" stroke="black" stroke-width="0.01" stroke-linejoin="round"/>
<path d="M345.566 170.592L345.441 177.769L347.36 177.803L347.448 172.741C347.728 172.277 348.14 172.058 348.684 172.067C349.092 172.074 349.378 172.17 349.556 172.354C349.734 172.539 349.82 172.843 349.812 173.251L349.732 177.844L351.651 177.878L351.732 173.239C351.733 172.347 351.548 171.679 351.193 171.219C350.823 170.774 350.268 170.538 349.497 170.524C348.636 170.509 347.95 170.815 347.426 171.44L347.379 170.623L345.566 170.592Z" fill="black" stroke="black" stroke-width="0.01" stroke-linejoin="round"/>
<path d="M359.208 178.01L359.21 177.904C359.02 177.538 358.938 177.022 358.95 176.342L359.004 173.23C359.018 172.429 358.772 171.79 358.251 171.342C357.745 170.88 357.039 170.656 356.162 170.641C355.573 170.63 355.043 170.712 354.57 170.915C354.099 171.104 353.731 171.369 353.468 171.727C353.205 172.07 353.062 172.461 353.055 172.869L354.974 172.902C354.979 172.63 355.088 172.421 355.272 172.273C355.456 172.125 355.714 172.054 356.032 172.059C356.394 172.066 356.665 172.161 356.827 172.375C357.005 172.575 357.076 172.833 357.07 173.166L357.063 173.589L356.187 173.573C355.114 173.555 354.294 173.737 353.728 174.135C353.162 174.533 352.865 175.118 352.851 175.873C352.841 176.493 353.058 177.01 353.52 177.427C353.966 177.842 354.551 178.064 355.262 178.077C356.002 178.09 356.611 177.843 357.089 177.323C357.114 177.58 357.171 177.808 357.259 177.976L359.208 178.01ZM355.019 176.364C354.841 176.21 354.769 176.012 354.773 175.771L354.775 175.665C354.847 175.001 355.366 174.678 356.333 174.695L357.044 174.707L357.022 175.946C356.912 176.156 356.728 176.319 356.484 176.435C356.24 176.552 355.982 176.623 355.695 176.618C355.408 176.613 355.183 176.534 355.019 176.364Z" fill="black" stroke="black" stroke-width="0.01" stroke-linejoin="round"/>
<path d="M360.519 170.853L360.394 178.03L362.313 178.064L362.401 172.987C362.651 172.538 363.048 172.318 363.592 172.327C363.985 172.334 364.27 172.43 364.418 172.614C364.581 172.813 364.666 173.117 364.659 173.525L364.579 178.103L366.498 178.137L366.57 173.195C366.806 172.655 367.203 172.39 367.777 172.4C368.185 172.407 368.471 172.503 368.619 172.702C368.782 172.886 368.852 173.19 368.845 173.598L368.765 178.176L370.684 178.21L370.764 173.616C370.78 172.71 370.611 172.027 370.241 171.567C369.856 171.106 369.285 170.87 368.5 170.856C367.578 170.84 366.846 171.19 366.335 171.907C366 171.175 365.372 170.801 364.435 170.785C363.574 170.77 362.889 171.06 362.364 171.686L362.317 170.884L360.519 170.853Z" fill="black" stroke="black" stroke-width="0.01" stroke-linejoin="round"/>
<path d="M377.111 178.11C377.599 177.892 377.997 177.582 378.292 177.179L377.373 176.105C376.941 176.641 376.362 176.888 375.622 176.875C375.138 176.867 374.748 176.724 374.45 176.432C374.138 176.154 373.948 175.773 373.896 175.303L378.474 175.383L378.488 174.598C378.508 173.449 378.251 172.568 377.688 171.938C377.139 171.309 376.374 170.994 375.392 170.976C374.727 170.965 374.15 171.106 373.631 171.399C373.112 171.707 372.711 172.139 372.415 172.693C372.133 173.262 371.985 173.91 371.973 174.62L371.969 174.816C371.951 175.889 372.268 176.756 372.906 177.417C373.56 178.064 374.416 178.411 375.473 178.429C376.063 178.44 376.609 178.328 377.111 178.11ZM376.296 172.882C376.503 173.127 376.618 173.462 376.611 173.885L376.608 174.036L373.949 173.989C374.018 173.507 374.175 173.147 374.421 172.894C374.653 172.641 374.972 172.511 375.35 172.517C375.758 172.525 376.073 172.651 376.296 172.882Z" fill="black" stroke="black" stroke-width="0.01" stroke-linejoin="round"/>
<path d="M389.984 171.896C389.606 171.013 389.014 170.307 388.221 169.825C387.429 169.327 386.466 169.084 385.363 169.065C384.275 169.046 383.288 169.285 382.402 169.799C381.517 170.312 380.824 171.056 380.308 172.014C379.777 172.973 379.486 174.071 379.404 175.294C379.337 176.562 379.484 177.653 379.876 178.582C380.268 179.511 380.875 180.217 381.683 180.699C382.506 181.182 383.499 181.441 384.663 181.462C385.131 181.47 385.585 181.417 386.04 181.32C386.511 181.222 386.876 181.092 387.151 180.916L386.912 179.884C386.623 180.015 386.273 180.129 385.864 180.198C385.454 180.266 385.076 180.305 384.713 180.299C383.308 180.274 382.273 179.833 381.593 178.96C380.897 178.086 380.616 176.872 380.704 175.316C380.783 174.275 381.01 173.372 381.402 172.578C381.809 171.784 382.348 171.173 383.021 170.747C383.693 170.335 384.468 170.122 385.314 170.137C386.689 170.161 387.709 170.602 388.389 171.445C389.07 172.288 389.367 173.472 389.264 175.028C389.22 175.798 389.058 176.414 388.778 176.878C388.498 177.357 388.146 177.578 387.738 177.57C387.481 177.566 387.287 177.472 387.169 177.288C387.051 177.105 387.011 176.832 387.062 176.485L387.477 172.654L387.058 172.359C386.61 172.064 386.084 171.904 385.449 171.893C384.936 171.884 384.449 172.026 384.006 172.321C383.562 172.615 383.177 173.047 382.88 173.616C382.583 174.185 382.39 174.832 382.287 175.556C382.196 176.446 382.304 177.173 382.657 177.724C382.995 178.274 383.489 178.554 384.139 178.566C384.849 178.578 385.429 178.271 385.893 177.659C386.023 177.979 386.231 178.209 386.5 178.38C386.784 178.551 387.1 178.632 387.493 178.639C388.354 178.654 389.04 178.334 389.565 177.678C390.091 177.022 390.379 176.12 390.459 174.988C390.524 173.825 390.361 172.795 389.984 171.896ZM384.345 173.687C384.639 173.269 385.036 173.049 385.55 173.058C385.731 173.061 385.897 173.094 386.077 173.158L385.735 176.296C385.608 176.657 385.437 176.926 385.237 177.104C385.038 177.297 384.84 177.384 384.613 177.38C384.28 177.374 384.041 177.219 383.896 176.914C383.75 176.609 383.712 176.17 383.768 175.582C383.873 174.752 384.065 174.121 384.345 173.687Z" fill="black" stroke="black" stroke-width="0.01" stroke-linejoin="round"/>
<path d="M391.814 171.399L391.688 178.576L393.607 178.61L393.696 173.533C393.946 173.084 394.343 172.864 394.887 172.873C395.279 172.88 395.565 172.976 395.713 173.16C395.876 173.359 395.961 173.663 395.954 174.071L395.874 178.65L397.793 178.683L397.864 173.742C398.1 173.202 398.498 172.937 399.072 172.947C399.48 172.954 399.766 173.049 399.913 173.248C400.076 173.433 400.147 173.736 400.139 174.144L400.06 178.723L401.979 178.756L402.059 174.163C402.075 173.256 401.905 172.573 401.535 172.113C401.15 171.653 400.58 171.416 399.794 171.402C398.873 171.386 398.141 171.736 397.63 172.453C397.295 171.721 396.667 171.348 395.73 171.331C394.868 171.316 394.183 171.607 393.658 172.232L393.612 171.43L391.814 171.399Z" fill="black" stroke="black" stroke-width="0.01" stroke-linejoin="round"/>
<path d="M409.566 178.888L409.568 178.783C409.378 178.417 409.296 177.901 409.308 177.221L409.362 174.109C409.376 173.308 409.13 172.669 408.609 172.221C408.103 171.759 407.397 171.535 406.52 171.52C405.931 171.509 405.401 171.591 404.929 171.794C404.457 171.982 404.089 172.248 403.826 172.606C403.563 172.949 403.42 173.34 403.413 173.748L405.332 173.781C405.337 173.509 405.446 173.3 405.63 173.152C405.814 173.004 406.073 172.933 406.39 172.938C406.752 172.945 407.023 173.04 407.185 173.254C407.363 173.454 407.434 173.712 407.429 174.045L407.421 174.468L406.545 174.452C405.472 174.434 404.653 174.616 404.086 175.014C403.52 175.412 403.223 175.997 403.21 176.752C403.199 177.372 403.416 177.889 403.878 178.305C404.324 178.721 404.91 178.943 405.62 178.956C406.36 178.969 406.969 178.722 407.447 178.202C407.472 178.459 407.529 178.687 407.617 178.854L409.566 178.888ZM405.378 177.243C405.199 177.089 405.127 176.891 405.131 176.65L405.133 176.544C405.205 175.88 405.724 175.557 406.691 175.573L407.402 175.586L407.38 176.825C407.271 177.035 407.086 177.198 406.842 177.314C406.599 177.431 406.34 177.502 406.053 177.497C405.766 177.492 405.541 177.413 405.378 177.243Z" fill="black" stroke="black" stroke-width="0.01" stroke-linejoin="round"/>
<path d="M412.902 171.767L410.968 171.733L410.843 178.911L412.777 178.945L412.902 171.767ZM411.169 170.588C411.363 170.773 411.633 170.868 411.95 170.874C412.268 170.879 412.541 170.794 412.741 170.616C412.94 170.438 413.035 170.198 413.04 169.895C413.045 169.608 412.959 169.38 412.766 169.18C412.573 168.995 412.317 168.9 411.985 168.894C411.652 168.889 411.394 168.975 411.194 169.153C410.994 169.346 410.9 169.571 410.895 169.858C410.89 170.16 410.976 170.403 411.169 170.588Z" fill="black" stroke="black" stroke-width="0.01" stroke-linejoin="round"/>
<path d="M416.56 168.808L414.626 168.774L414.448 178.974L416.382 179.008L416.56 168.808Z" fill="black" stroke="black" stroke-width="0.01" stroke-linejoin="round"/>
<path d="M418.374 178.831C418.567 179.031 418.822 179.126 419.14 179.131C419.457 179.137 419.715 179.051 419.93 178.858C420.13 178.68 420.24 178.44 420.245 178.138C420.251 177.821 420.149 177.577 419.956 177.377C419.748 177.192 419.493 177.082 419.175 177.076C418.858 177.071 418.599 177.172 418.4 177.35C418.185 177.543 418.075 177.783 418.069 178.1C418.064 178.402 418.166 178.646 418.374 178.831Z" fill="black" stroke="black" stroke-width="0.01" stroke-linejoin="round"/>
<path d="M423.895 177.234C423.674 176.913 423.578 176.382 423.591 175.642L423.594 175.43C423.607 174.705 423.737 174.178 423.97 173.85C424.202 173.536 424.537 173.376 424.99 173.384C425.353 173.39 425.638 173.516 425.861 173.747C426.068 173.992 426.184 174.296 426.192 174.675L427.99 174.706C427.99 173.844 427.73 173.16 427.195 172.636C426.66 172.128 425.939 171.859 425.047 171.843C424.02 171.825 423.198 172.143 422.598 172.783C421.997 173.437 421.694 174.309 421.675 175.427L421.673 175.548C421.653 176.696 421.939 177.608 422.517 178.268C423.095 178.928 423.905 179.275 424.933 179.293C425.477 179.302 425.977 179.19 426.434 178.986C426.892 178.768 427.26 178.457 427.524 178.053C427.803 177.65 427.931 177.214 427.955 176.731L426.157 176.699C426.136 177.016 426.011 177.271 425.796 177.464C425.566 177.656 425.277 177.742 424.929 177.736C424.461 177.728 424.116 177.571 423.895 177.234Z" fill="black" stroke="black" stroke-width="0.01" stroke-linejoin="round"/>
<path d="M428.765 175.657C428.745 176.79 429.032 177.702 429.639 178.377C430.247 179.053 431.073 179.4 432.1 179.418C433.143 179.436 433.98 179.118 434.596 178.464C435.227 177.81 435.545 176.924 435.564 175.821L435.572 175.337C435.515 174.308 435.181 173.501 434.587 172.901C433.978 172.286 433.197 171.985 432.23 171.969C431.535 171.956 430.943 172.097 430.424 172.39C429.905 172.684 429.489 173.115 429.208 173.669C428.926 174.223 428.779 174.856 428.767 175.566L428.765 175.657ZM431.091 174.034C431.354 173.676 431.735 173.502 432.203 173.51C432.672 173.518 433.031 173.706 433.297 174.088C433.547 174.455 433.659 174.971 433.647 175.651C433.633 176.437 433.503 176.994 433.24 177.352C432.961 177.71 432.596 177.87 432.127 177.862C431.659 177.853 431.284 177.665 431.033 177.313C430.798 176.947 430.671 176.415 430.683 175.735C430.697 174.965 430.842 174.408 431.091 174.034Z" fill="black" stroke="black" stroke-width="0.01" stroke-linejoin="round"/>
<path d="M436.819 172.185L436.694 179.362L438.613 179.395L438.702 174.318C438.951 173.869 439.348 173.65 439.892 173.659C440.285 173.666 440.57 173.762 440.718 173.946C440.881 174.145 440.967 174.449 440.959 174.857L440.879 179.435L442.798 179.469L442.87 174.527C443.106 173.987 443.503 173.722 444.078 173.732C444.486 173.739 444.771 173.835 444.919 174.034C445.082 174.218 445.152 174.522 445.145 174.93L445.065 179.508L446.984 179.542L447.064 174.948C447.08 174.041 446.911 173.358 446.541 172.898C446.156 172.438 445.586 172.202 444.8 172.188C443.878 172.172 443.146 172.522 442.635 173.238C442.3 172.507 441.672 172.133 440.735 172.117C439.874 172.102 439.189 172.392 438.664 173.018L438.617 172.216L436.819 172.185Z" fill="black" stroke="black" stroke-width="0.01" stroke-linejoin="round"/>
<path d="M337.735 219.633L339.73 220.978L341.982 217.441L344.264 221.114L346.259 219.693L343.629 216.353L347.649 215.235L346.909 212.953L343.1 214.494L343.357 210.021H340.894L341.151 214.404L337.237 212.832L336.496 215.099L340.441 216.217L337.735 219.633Z" fill="black" stroke="black" stroke-width="0.01" stroke-linejoin="round"/>
<path d="M349.376 219.633L351.371 220.978L353.623 217.441L355.905 221.114L357.9 219.693L355.27 216.353L359.29 215.235L358.55 212.953L354.741 214.494L354.998 210.021H352.535L352.792 214.404L348.878 212.832L348.137 215.099L352.081 216.217L349.376 219.633Z" fill="black" stroke="black" stroke-width="0.01" stroke-linejoin="round"/>
<path d="M361.017 219.633L363.012 220.978L365.264 217.441L367.546 221.114L369.541 219.693L366.911 216.353L370.931 215.235L370.19 212.953L366.382 214.494L366.639 210.021H364.176L364.432 214.404L360.518 212.832L359.778 215.099L363.722 216.217L361.017 219.633Z" fill="black" stroke="black" stroke-width="0.01" stroke-linejoin="round"/>
<path d="M372.658 219.633L374.653 220.978L376.904 217.441L379.186 221.114L381.181 219.693L378.552 216.353L382.572 215.235L381.831 212.953L378.023 214.494L378.28 210.021H375.816L376.073 214.404L372.159 212.832L371.419 215.099L375.363 216.217L372.658 219.633Z" fill="black" stroke="black" stroke-width="0.01" stroke-linejoin="round"/>
<path d="M384.299 219.633L386.293 220.978L388.545 217.441L390.827 221.114L392.822 219.693L390.193 216.353L394.212 215.235L393.472 212.953L389.664 214.494L389.921 210.021H387.457L387.714 214.404L383.8 212.832L383.059 215.099L387.004 216.217L384.299 219.633Z" fill="black" stroke="black" stroke-width="0.01" stroke-linejoin="round"/>
<path d="M395.939 219.633L397.934 220.978L400.186 217.441L402.468 221.114L404.463 219.693L401.833 216.353L405.853 215.235L405.113 212.953L401.304 214.494L401.561 210.021H399.098L399.355 214.404L395.441 212.832L394.7 215.099L398.645 216.217L395.939 219.633Z" fill="black" stroke="black" stroke-width="0.01" stroke-linejoin="round"/>
<path d="M407.58 219.633L409.575 220.978L411.827 217.441L414.109 221.114L416.104 219.693L413.474 216.353L417.494 215.235L416.754 212.953L412.945 214.494L413.202 210.021H410.739L410.996 214.404L407.081 212.832L406.341 215.099L410.285 216.217L407.58 219.633Z" fill="black" stroke="black" stroke-width="0.01" stroke-linejoin="round"/>
<path d="M419.221 219.633L421.216 220.978L423.468 217.441L425.75 221.114L427.744 219.693L425.115 216.353L429.135 215.235L428.394 212.953L424.586 214.494L424.843 210.021H422.38L422.636 214.404L418.722 212.832L417.982 215.099L421.926 216.217L419.221 219.633Z" fill="black" stroke="black" stroke-width="0.01" stroke-linejoin="round"/>
<path d="M548.384 436.074H323.165C317.841 436.074 313.526 431.761 313.526 426.437V309.858C313.526 304.534 317.841 300.219 323.165 300.219H548.384C553.707 300.219 558.023 304.534 558.023 309.858V426.437C558.023 431.761 553.707 436.074 548.384 436.074Z" fill="#FEFEFE"/>
<path d="M548.384 436.072C548.381 436.03 549.04 436.086 550.284 435.844C551.499 435.577 553.374 434.945 555.135 433.201C556.002 432.332 556.8 431.173 557.32 429.751C557.601 429.045 557.749 428.261 557.859 427.443C557.921 426.622 557.909 425.749 557.903 424.842C557.894 421.215 557.882 417.037 557.869 412.33C557.838 393.49 557.796 366.248 557.743 332.592C557.739 328.383 557.734 324.076 557.729 319.672C557.728 317.469 557.725 315.241 557.723 312.991C557.669 310.739 557.962 308.433 557.039 306.373C556.206 304.31 554.6 302.546 552.57 301.529C551.559 301.02 550.45 300.694 549.31 300.579C548.187 300.493 546.96 300.549 545.778 300.533C541.003 300.538 536.14 300.539 531.192 300.544C511.397 300.555 490.247 300.567 467.992 300.579C423.481 300.589 374.546 300.601 323.183 300.612C321.64 300.62 320.111 301.008 318.754 301.729C317.419 302.48 316.244 303.536 315.415 304.825C314.598 306.115 314.054 307.594 313.957 309.119C313.881 310.647 313.936 312.28 313.919 313.851C313.919 320.193 313.918 326.495 313.918 332.752C313.916 345.261 313.913 357.587 313.912 369.698C313.909 381.811 313.906 393.709 313.903 405.361C313.9 411.186 313.898 416.95 313.895 422.649C313.906 424.065 313.871 425.513 313.918 426.893C313.983 428.253 314.348 429.592 314.982 430.791C316.254 433.19 318.61 434.951 321.232 435.506C322.526 435.811 323.909 435.682 325.302 435.713C326.683 435.713 328.063 435.714 329.437 435.716C332.183 435.717 334.914 435.719 337.625 435.72C343.047 435.723 348.396 435.726 353.668 435.728C364.211 435.735 374.45 435.741 384.347 435.746C404.14 435.764 422.579 435.781 439.411 435.796C473.069 435.849 500.306 435.89 519.147 435.92C528.55 435.951 535.854 435.977 540.825 435.994C543.291 436.01 545.177 436.026 546.462 436.035C547.733 436.048 548.384 436.072 548.384 436.072C548.384 436.072 547.733 436.1 546.462 436.113C545.177 436.121 543.291 436.136 540.825 436.154C535.854 436.171 528.55 436.195 519.147 436.228C500.306 436.257 473.069 436.299 439.411 436.35C422.579 436.366 404.14 436.381 384.347 436.399C374.45 436.405 364.211 436.414 353.668 436.42C348.396 436.423 343.047 436.425 337.625 436.428C334.914 436.429 332.183 436.431 329.437 436.432C328.063 436.432 326.683 436.434 325.302 436.434C323.939 436.405 322.515 436.544 321.081 436.216C318.25 435.619 315.71 433.725 314.335 431.138C313.652 429.844 313.253 428.398 313.183 426.929C313.133 425.48 313.168 424.082 313.156 422.649C313.155 416.95 313.153 411.186 313.15 405.361C313.147 393.709 313.144 381.811 313.141 369.698C313.139 357.587 313.136 345.261 313.135 332.752C313.135 326.495 313.133 320.193 313.133 313.851C313.152 312.253 313.093 310.709 313.173 309.057C313.278 307.404 313.868 305.794 314.755 304.396C315.654 302.998 316.928 301.853 318.377 301.038C319.848 300.255 321.513 299.831 323.183 299.823C374.546 299.834 423.481 299.846 467.992 299.856C490.247 299.868 511.397 299.881 531.192 299.893C536.14 299.896 541.003 299.899 545.778 299.902C546.981 299.92 548.136 299.862 549.372 299.956C550.587 300.082 551.772 300.431 552.85 300.976C555.011 302.064 556.72 303.949 557.603 306.148C558.051 307.243 558.289 308.418 558.308 309.59C558.313 310.73 558.316 311.863 558.319 312.991C558.317 315.241 558.314 317.469 558.313 319.672C558.308 324.076 558.304 328.383 558.299 332.592C558.246 366.248 558.204 393.49 558.174 412.33C558.16 417.037 558.15 421.215 558.139 424.842C558.138 425.746 558.145 426.618 558.074 427.464C557.955 428.3 557.797 429.099 557.504 429.817C556.96 431.265 556.137 432.438 555.248 433.313C553.438 435.067 551.53 435.679 550.299 435.923C549.668 436.021 549.191 436.075 548.867 436.068C548.546 436.078 548.384 436.072 548.384 436.072Z" fill="#0D151D"/>
<path d="M398.71 348.221V349.918H391.636V340.783H398.539V342.48H393.738V344.463H397.979V346.109H393.738V348.221H398.71Z" fill="#0D151D"/>
<path d="M408.777 340.783V349.918H407.04L402.485 344.372V349.918H400.397V340.783H402.144L406.688 346.328V340.783H408.777Z" fill="#0D151D"/>
<path d="M412.837 342.506H409.915V340.783H417.876V342.506H414.953V349.918H412.837V342.506Z" fill="#0D151D"/>
<path d="M426.085 348.221V349.918H419.012V340.783H425.916V342.48H421.114V344.463H425.354V346.109H421.114V348.221H426.085Z" fill="#0D151D"/>
<path d="M433.594 349.918L431.832 347.373H431.728H429.887V349.918H427.773V340.783H431.728C434.167 340.783 435.695 342.048 435.695 344.099C435.695 345.468 435.003 346.473 433.817 346.982L435.864 349.918H433.594ZM431.61 342.506H429.887V345.691H431.61C432.904 345.691 433.555 345.09 433.555 344.099C433.555 343.094 432.904 342.506 431.61 342.506Z" fill="#0D151D"/>
<path d="M440.489 345.351C440.489 342.598 442.603 340.626 445.449 340.626C447.028 340.626 448.346 341.2 449.209 342.244L447.85 343.497C447.237 342.793 446.466 342.427 445.553 342.427C443.844 342.427 442.629 343.627 442.629 345.351C442.629 347.074 443.844 348.276 445.553 348.276C446.466 348.276 447.237 347.907 447.85 347.191L449.209 348.445C448.346 349.501 447.028 350.076 445.437 350.076C442.603 350.076 440.489 348.105 440.489 345.351Z" fill="#0D151D"/>
<path d="M449.865 345.351C449.865 342.636 451.979 340.626 454.862 340.626C457.734 340.626 459.86 342.622 459.86 345.351C459.86 348.079 457.734 350.076 454.862 350.076C451.979 350.076 449.865 348.066 449.865 345.351ZM457.72 345.351C457.72 343.615 456.495 342.427 454.862 342.427C453.232 342.427 452.003 343.615 452.003 345.351C452.003 347.086 453.232 348.276 454.862 348.276C456.495 348.276 457.72 347.086 457.72 345.351Z" fill="#0D151D"/>
<path d="M461.456 340.783H465.606C468.597 340.783 470.645 342.584 470.645 345.351C470.645 348.118 468.597 349.918 465.606 349.918H461.456V340.783ZM465.503 348.183C467.317 348.183 468.505 347.1 468.505 345.351C468.505 343.603 467.317 342.519 465.503 342.519H463.572V348.183H465.503Z" fill="#0D151D"/>
<path d="M479.313 348.221V349.918H472.24V340.783H479.144V342.48H474.341V344.463H478.583V346.109H474.341V348.221H479.313Z" fill="#0D151D"/>
<path d="M364.043 411.011H341.853C338.554 411.011 335.879 408.338 335.879 405.039V370.479C335.879 367.179 338.554 364.507 341.853 364.507H364.043C367.342 364.507 370.016 367.179 370.016 370.479V405.039C370.016 408.338 367.342 411.011 364.043 411.011Z" fill="#E7E6E0"/>
<path d="M534.376 410.473H512.186C508.887 410.473 506.212 407.8 506.212 404.501V369.941C506.212 366.641 508.887 363.969 512.186 363.969H534.376C537.675 363.969 540.348 366.641 540.348 369.941V404.501C540.348 407.8 537.675 410.473 534.376 410.473Z" fill="#E7E6E0"/>
<path d="M406.671 411.011H384.482C381.182 411.011 378.508 408.338 378.508 405.039V370.479C378.508 367.179 381.182 364.507 384.482 364.507H406.671C409.97 364.507 412.644 367.179 412.644 370.479V405.039C412.644 408.338 409.97 411.011 406.671 411.011Z" fill="#E7E6E0"/>
<path d="M449.299 411.011H427.111C423.811 411.011 421.137 408.338 421.137 405.039V370.479C421.137 367.179 423.811 364.507 427.111 364.507H449.299C452.6 364.507 455.27 367.179 455.27 370.479V405.039C455.27 408.338 452.6 411.011 449.299 411.011Z" fill="#E7E6E0"/>
<path d="M491.929 411.011H469.739C466.44 411.011 463.765 408.338 463.765 405.039V370.479C463.765 367.179 466.44 364.507 469.739 364.507H491.929C495.228 364.507 497.902 367.179 497.902 370.479V405.039C497.902 408.338 495.228 411.011 491.929 411.011Z" fill="#E7E6E0"/>
<path d="M359.623 399.273C359.623 399.491 356.082 399.666 351.713 399.666C347.342 399.666 343.803 399.491 343.803 399.273C343.803 399.056 347.342 398.88 351.713 398.88C356.082 398.88 359.623 399.056 359.623 399.273Z" fill="#953333"/>
<path d="M332.75 313.775C332.75 315.82 331.092 317.478 329.048 317.478C327.004 317.478 325.347 315.82 325.347 313.775C325.347 311.732 327.004 310.073 329.048 310.073C331.092 310.073 332.75 311.732 332.75 313.775Z" fill="#0D151D"/>
<path d="M343.421 313.775C343.421 315.82 341.763 317.478 339.718 317.478C337.673 317.478 336.015 315.82 336.015 313.775C336.015 311.732 337.673 310.073 339.718 310.073C341.763 310.073 343.421 311.732 343.421 313.775Z" fill="#0D151D"/>
<path d="M353.894 313.775C353.894 315.82 352.237 317.478 350.193 317.478C348.148 317.478 346.491 315.82 346.491 313.775C346.491 311.732 348.148 310.073 350.193 310.073C352.237 310.073 353.894 311.732 353.894 313.775Z" fill="#0D151D"/>
<path d="M558.387 324.207C558.387 324.423 503.648 324.599 436.136 324.599C368.603 324.599 313.874 324.423 313.874 324.207C313.874 323.988 368.603 323.813 436.136 323.813C503.648 323.813 558.387 323.988 558.387 324.207Z" fill="#0D151D"/>
<path d="M638.886 60.3533V141.206H538.199V60.3533H638.886Z" fill="#F3F2EF"/>
<path d="M576.34 559.886C595.153 549.489 616.23 530.691 624.304 509.488C603.961 520.22 586.903 538.146 576.34 559.886Z" fill="#0D151D"/>
<path d="M577.277 528.182C596.09 517.787 617.169 498.991 625.242 477.784C604.899 488.516 587.84 506.442 577.277 528.182Z" fill="#0D151D"/>
<path d="M579.817 497.179C598.63 486.783 619.708 467.984 627.782 446.781C607.438 457.511 590.378 475.439 579.817 497.179Z" fill="#0D151D"/>
<path d="M583.65 464.597C601.072 451.654 619.75 430.059 625.243 407.897C606.344 421.388 591.549 441.557 583.65 464.597Z" fill="#0D151D"/>
<path d="M588.751 439.442C600.444 420.341 610.322 392.704 607.788 369.903C594.914 390.112 588.144 414.846 588.751 439.442Z" fill="#0D151D"/>
<path d="M586.17 451.417C580.956 427.775 568.524 398.657 550.862 382.354C556.033 407.731 568.591 432.296 586.17 451.417Z" fill="#0D151D"/>
<path d="M582.526 478.249C575.148 454.08 559.808 424.833 540.071 409.39C547.543 435.372 562.642 459.863 582.526 478.249Z" fill="#0D151D"/>
<path d="M578.528 510.922C571.153 486.751 555.813 457.507 536.075 442.066C543.548 468.046 558.647 492.537 578.528 510.922Z" fill="#0D151D"/>
<path d="M576.732 550.713C569.357 526.544 554.015 497.299 534.279 481.858C541.75 507.839 556.851 532.329 576.732 550.713Z" fill="#0D151D"/>
<path d="M589.18 434.658C589.168 434.655 589.13 434.785 589.067 435.043C588.999 435.343 588.913 435.718 588.807 436.185C588.586 437.251 588.276 438.725 587.885 440.594C587.087 444.425 586.049 449.99 584.872 456.886C583.682 463.78 582.44 472.019 581.23 481.189C580.058 490.365 578.946 500.475 578.054 511.113C577.188 521.758 576.633 531.917 576.281 541.162C575.968 550.408 575.845 558.74 575.885 565.735C575.914 572.731 576.023 578.391 576.181 582.299C576.259 584.207 576.322 585.711 576.365 586.8C576.393 587.276 576.415 587.661 576.433 587.969C576.453 588.233 576.469 588.368 576.482 588.367C576.494 588.367 576.503 588.231 576.509 587.967C576.514 587.659 576.518 587.272 576.521 586.795C576.513 585.706 576.498 584.2 576.484 582.292C576.418 578.382 576.389 572.725 576.429 565.735C576.459 558.747 576.641 550.425 576.992 541.189C577.382 531.955 577.959 521.809 578.823 511.178C579.714 500.55 580.808 490.45 581.938 481.279C583.108 472.112 584.29 463.873 585.411 456.973C586.518 450.074 587.474 444.496 588.181 440.651C588.51 438.771 588.771 437.288 588.959 436.216C589.035 435.743 589.095 435.363 589.144 435.057C589.181 434.797 589.194 434.66 589.18 434.658Z" fill="#0D151D"/>
<path d="M571.724 571.972C582.86 555.999 592.9 532.618 591.972 512.919C579.759 529.8 572.557 550.805 571.724 571.972Z" fill="#283C46"/>
<path d="M561.655 547.253C572.791 531.28 582.832 507.899 581.904 488.203C569.689 505.084 562.486 526.086 561.655 547.253Z" fill="#283C46"/>
<path d="M553.071 522.389C564.205 506.416 574.244 483.036 573.317 463.338C561.103 480.219 553.901 501.222 553.071 522.389Z" fill="#283C46"/>
<path d="M544.958 495.768C554.141 478.431 561.354 453.928 558.09 434.59C547.94 452.974 543.269 474.734 544.958 495.768Z" fill="#283C46"/>
<path d="M540.366 474.303C542.981 454.679 541.267 429.278 531.521 412.865C528.363 433.841 531.511 455.695 540.366 474.303Z" fill="#283C46"/>
<path d="M542.434 484.585C530.308 468.667 510.688 451.615 491.351 446.618C504.033 463.887 522.201 477.392 542.434 484.585Z" fill="#283C46"/>
<path d="M548.733 506.719C534.743 491.313 512.806 475.402 492.145 471.948C506.827 488.702 526.957 501.069 548.733 506.719Z" fill="#283C46"/>
<path d="M556.747 533.481C542.755 518.077 520.82 502.164 500.161 498.711C514.843 515.463 534.97 527.83 556.747 533.481Z" fill="#283C46"/>
<path d="M539.071 470.449C539.058 470.453 539.072 470.567 539.109 470.787C539.157 471.05 539.217 471.369 539.29 471.761C539.478 472.674 539.735 473.92 540.059 475.493C540.727 478.734 541.799 483.4 543.213 489.146C546.038 500.636 550.426 516.401 556.295 533.483C559.243 542.022 562.272 550.076 565.158 557.351C568.083 564.609 570.83 571.098 573.271 576.49C575.694 581.887 577.732 586.219 579.204 589.182C579.921 590.62 580.488 591.757 580.903 592.591C581.088 592.945 581.238 593.233 581.363 593.471C581.469 593.666 581.529 593.765 581.541 593.759C581.552 593.754 581.515 593.645 581.43 593.438C581.325 593.192 581.196 592.892 581.038 592.528C580.652 591.678 580.128 590.521 579.465 589.06C578.073 586.059 576.108 581.698 573.747 576.277C571.371 570.866 568.677 564.363 565.791 557.1C562.942 549.822 559.937 541.771 556.993 533.244C551.133 516.185 546.67 500.465 543.717 489.017C542.241 483.294 541.092 478.649 540.338 475.429C539.956 473.871 539.656 472.635 539.434 471.73C539.334 471.344 539.25 471.03 539.182 470.77C539.121 470.557 539.084 470.446 539.071 470.449Z" fill="#0D151D"/>
</svg>
