<svg width="48" height="48" viewBox="0 0 48 48" fill="none" xmlns="http://www.w3.org/2000/svg">
<g clip-path="url(#clip0_613_8124)">
<path d="M33.1094 30.0874C32.759 30.8983 32.3442 31.6447 31.8636 32.3309C31.2085 33.2664 30.6721 33.9139 30.2588 34.2735C29.618 34.8638 28.9314 35.166 28.1962 35.1832C27.6684 35.1832 27.0319 35.0328 26.291 34.7277C25.5476 34.4239 24.8645 34.2735 24.2399 34.2735C23.5848 34.2735 22.8822 34.4239 22.1307 34.7277C21.378 35.0328 20.7717 35.1918 20.3081 35.2076C19.6031 35.2377 18.9004 34.9268 18.1989 34.2735C17.7512 33.8824 17.1912 33.2119 16.5204 32.2621C15.8007 31.2478 15.2089 30.0717 14.7454 28.7307C14.2489 27.2823 14 25.8798 14 24.522C14 22.9666 14.3356 21.6251 15.0077 20.5009C15.5359 19.5979 16.2386 18.8856 17.1182 18.3627C17.9977 17.8398 18.948 17.5734 19.9714 17.5563C20.5314 17.5563 21.2657 17.7298 22.1783 18.0708C23.0883 18.4129 23.6726 18.5864 23.9288 18.5864C24.1203 18.5864 24.7694 18.3835 25.8697 17.9791C26.9103 17.604 27.7886 17.4487 28.508 17.5099C30.4576 17.6675 31.9223 18.4372 32.8963 19.824C31.1527 20.8821 30.2902 22.3642 30.3074 24.2654C30.3231 25.7463 30.8595 26.9786 31.9137 27.9571C32.3914 28.4112 32.9249 28.7622 33.5185 29.0115C33.3898 29.3854 33.2539 29.7436 33.1094 30.0874ZM28.6382 12.4648C28.6382 13.6255 28.2148 14.7093 27.3709 15.7124C26.3525 16.9049 25.1207 17.594 23.7849 17.4853C23.7678 17.346 23.758 17.1995 23.758 17.0454C23.758 15.9312 24.2423 14.7386 25.1024 13.7636C25.5317 13.2699 26.0779 12.8594 26.7401 12.532C27.4009 12.2094 28.026 12.031 28.6139 12.0005C28.631 12.1557 28.6382 12.3108 28.6382 12.4648V12.4648Z" fill="black"/>
</g>
<defs>
<clipPath id="clip0_613_8124">
<rect width="19.5185" height="23.2091" fill="white" transform="translate(14 12)"/>
</clipPath>
</defs>
</svg>
