<svg width="24" height="24" viewBox="0 0 24 24" fill="none" xmlns="http://www.w3.org/2000/svg">
<path d="M16.65 12.3C16.5333 12.3 16.425 12.2833 16.325 12.25C16.225 12.2167 16.1333 12.1583 16.05 12.075C14.6 10.775 13.3625 9.53333 12.3375 8.35C11.3125 7.16667 10.8 6.06667 10.8 5.05C10.8 4.18333 11.0917 3.45833 11.675 2.875C12.2583 2.29167 12.9833 2 13.85 2C14.35 2 14.8458 2.1375 15.3375 2.4125C15.8292 2.6875 16.2667 3.05833 16.65 3.525C17.0333 3.05833 17.4708 2.6875 17.9625 2.4125C18.4542 2.1375 18.95 2 19.45 2C20.3167 2 21.0417 2.29167 21.625 2.875C22.2083 3.45833 22.5 4.18333 22.5 5.05C22.5 6.06667 21.9875 7.16667 20.9625 8.35C19.9375 9.53333 18.7 10.775 17.25 12.075C17.1667 12.1583 17.075 12.2167 16.975 12.25C16.875 12.2833 16.7667 12.3 16.65 12.3ZM16.65 10.525C17.75 9.525 18.75 8.53333 19.65 7.55C20.55 6.56667 21 5.73333 21 5.05C21 4.6 20.8542 4.22917 20.5625 3.9375C20.2708 3.64583 19.9 3.5 19.45 3.5C19.1667 3.5 18.8875 3.56667 18.6125 3.7C18.3375 3.83333 18.0583 4.08333 17.775 4.45L16.65 5.825L15.525 4.45C15.2417 4.08333 14.9625 3.83333 14.6875 3.7C14.4125 3.56667 14.1333 3.5 13.85 3.5C13.4 3.5 13.0292 3.64583 12.7375 3.9375C12.4458 4.22917 12.3 4.6 12.3 5.05C12.3 5.73333 12.75 6.56667 13.65 7.55C14.55 8.53333 15.55 9.525 16.65 10.525ZM14.55 20.95L20.75 19C20.65 18.8667 20.525 18.6958 20.375 18.4875C20.225 18.2792 20.05 18.175 19.85 18.175H13.9C13.8667 18.175 13.7167 18.1625 13.45 18.1375C13.1833 18.1125 12.925 18.0417 12.675 17.925L11.025 17.425C10.825 17.3583 10.675 17.225 10.575 17.025C10.475 16.825 10.4583 16.625 10.525 16.425C10.5917 16.225 10.7208 16.075 10.9125 15.975C11.1042 15.875 11.3 15.8667 11.5 15.95L13.825 16.725C13.7917 16.725 13.9125 16.7167 14.1875 16.7C14.4625 16.6833 14.8583 16.675 15.375 16.675H15.6C15.6 16.475 15.5625 16.2792 15.4875 16.0875C15.4125 15.8958 15.2833 15.7583 15.1 15.675L8.975 13.35H6.875V18.7L14.55 20.95ZM14.225 22.375L6.875 20.275C6.84167 20.725 6.65417 21.075 6.3125 21.325C5.97083 21.575 5.65833 21.7 5.375 21.7H3C2.58333 21.7 2.22917 21.5542 1.9375 21.2625C1.64583 20.9708 1.5 20.6167 1.5 20.2V13.35C1.5 12.9333 1.64583 12.5792 1.9375 12.2875C2.22917 11.9958 2.58333 11.85 3 11.85H8.95C9.03333 11.85 9.12083 11.8583 9.2125 11.875C9.30417 11.8917 9.39167 11.9167 9.475 11.95L15.6 14.25C16.05 14.4167 16.4292 14.6875 16.7375 15.0625C17.0458 15.4375 17.2 15.975 17.2 16.675H20.05C20.75 16.675 21.3333 16.925 21.8 17.425C22.2667 17.925 22.5 18.6 22.5 19.45C22.5 19.6333 22.4583 19.7958 22.375 19.9375C22.2917 20.0792 22.1583 20.1833 21.975 20.25L15.075 22.375C14.9417 22.4083 14.8 22.425 14.65 22.425C14.5 22.425 14.3583 22.4083 14.225 22.375ZM3 20.2H5.35V13.35H3V20.2Z" fill="#443E3E"/>
</svg>
