<svg width="25" height="25" viewBox="0 0 25 25" fill="none" xmlns="http://www.w3.org/2000/svg">
<path d="M5 21.5C4.6 21.5 4.25 21.35 3.95 21.05C3.65 20.75 3.5 20.4 3.5 20V5C3.5 4.6 3.65 4.25 3.95 3.95C4.25 3.65 4.6 3.5 5 3.5H16.55L21.5 8.45V20C21.5 20.4 21.35 20.75 21.05 21.05C20.75 21.35 20.4 21.5 20 21.5H5ZM5 20H20V9.275H16.475C16.2583 9.275 16.0792 9.20417 15.9375 9.0625C15.7958 8.92083 15.725 8.74167 15.725 8.525V5H5V20ZM8.225 17.225H16.775C16.9917 17.225 17.1708 17.1542 17.3125 17.0125C17.4542 16.8708 17.525 16.6917 17.525 16.475C17.525 16.2583 17.4542 16.0792 17.3125 15.9375C17.1708 15.7958 16.9917 15.725 16.775 15.725H8.225C8.00833 15.725 7.82917 15.7958 7.6875 15.9375C7.54583 16.0792 7.475 16.2583 7.475 16.475C7.475 16.6917 7.54583 16.8708 7.6875 17.0125C7.82917 17.1542 8.00833 17.225 8.225 17.225ZM8.225 9.275H11.75C11.9667 9.275 12.1458 9.20417 12.2875 9.0625C12.4292 8.92083 12.5 8.74167 12.5 8.525C12.5 8.30833 12.4292 8.12917 12.2875 7.9875C12.1458 7.84583 11.9667 7.775 11.75 7.775H8.225C8.00833 7.775 7.82917 7.84583 7.6875 7.9875C7.54583 8.12917 7.475 8.30833 7.475 8.525C7.475 8.74167 7.54583 8.92083 7.6875 9.0625C7.82917 9.20417 8.00833 9.275 8.225 9.275ZM8.225 13.25H16.775C16.9917 13.25 17.1708 13.1792 17.3125 13.0375C17.4542 12.8958 17.525 12.7167 17.525 12.5C17.525 12.2833 17.4542 12.1042 17.3125 11.9625C17.1708 11.8208 16.9917 11.75 16.775 11.75H8.225C8.00833 11.75 7.82917 11.8208 7.6875 11.9625C7.54583 12.1042 7.475 12.2833 7.475 12.5C7.475 12.7167 7.54583 12.8958 7.6875 13.0375C7.82917 13.1792 8.00833 13.25 8.225 13.25ZM5 5V9.275V5V20V5Z" fill="#443E3E"/>
</svg>
