<svg width="25" height="25" viewBox="0 0 25 25" fill="none" xmlns="http://www.w3.org/2000/svg">
<path d="M6 19.625H9.75V13.375H15.25V19.625H19V9.875L12.5 5L6 9.875V19.625ZM6 21.125C5.58333 21.125 5.22917 20.9792 4.9375 20.6875C4.64583 20.3958 4.5 20.0417 4.5 19.625V9.875C4.5 9.64167 4.55417 9.41667 4.6625 9.2C4.77083 8.98333 4.91667 8.80833 5.1 8.675L11.6 3.8C11.7333 3.7 11.875 3.625 12.025 3.575C12.175 3.525 12.3333 3.5 12.5 3.5C12.6667 3.5 12.825 3.525 12.975 3.575C13.125 3.625 13.2667 3.7 13.4 3.8L19.9 8.675C20.0833 8.80833 20.2292 8.98333 20.3375 9.2C20.4458 9.41667 20.5 9.64167 20.5 9.875V19.625C20.5 20.0417 20.3542 20.3958 20.0625 20.6875C19.7708 20.9792 19.4167 21.125 19 21.125H13.75V14.875H11.25V21.125H6Z" fill="#443E3E"/>
</svg>
