<svg width="25" height="25" viewBox="0 0 25 25" fill="none" xmlns="http://www.w3.org/2000/svg">
<path d="M11.775 21.5H5C4.6 21.5 4.25 21.35 3.95 21.05C3.65 20.75 3.5 20.4 3.5 20V5C3.5 4.6 3.65 4.25 3.95 3.95C4.25 3.65 4.6 3.5 5 3.5H11.775V21.5ZM10.275 20V5H5V20H10.275ZM13.275 11.725V3.5H20C20.4 3.5 20.75 3.65 21.05 3.95C21.35 4.25 21.5 4.6 21.5 5V11.725H13.275ZM14.775 10.225H20V5H14.775V10.225ZM13.275 21.5V13.225H21.5V20C21.5 20.4 21.35 20.75 21.05 21.05C20.75 21.35 20.4 21.5 20 21.5H13.275ZM14.775 20H20V14.725H14.775V20Z" fill="#443E3E"/>
</svg>
