<svg width="25" height="25" viewBox="0 0 25 25" fill="none" xmlns="http://www.w3.org/2000/svg">
<g clip-path="url(#clip0_561_5528)">
<path d="M6.35 24C5.56667 24 4.89583 23.7208 4.3375 23.1625C3.77917 22.6042 3.5 21.9333 3.5 21.15C3.5 20.35 3.77917 19.675 4.3375 19.125C4.89583 18.575 5.56667 18.3 6.35 18.3C6.58333 18.3 6.7875 18.3208 6.9625 18.3625C7.1375 18.4042 7.31667 18.4667 7.5 18.55L9.625 15.9C9.30833 15.5167 9.06667 15.0792 8.9 14.5875C8.73333 14.0958 8.69167 13.5833 8.775 13.05L5.75 12.025C5.5 12.4417 5.17083 12.7667 4.7625 13C4.35417 13.2333 3.88333 13.35 3.35 13.35C2.56667 13.35 1.89583 13.0708 1.3375 12.5125C0.779167 11.9542 0.5 11.2833 0.5 10.5C0.5 9.7 0.779167 9.025 1.3375 8.475C1.89583 7.925 2.56667 7.65 3.35 7.65C4.15 7.65 4.825 7.925 5.375 8.475C5.925 9.025 6.2 9.7 6.2 10.5V10.6L9.25 11.65C9.55 11.1167 9.9125 10.7083 10.3375 10.425C10.7625 10.1417 11.2333 9.94167 11.75 9.825V6.6C11.1 6.41667 10.5875 6.05833 10.2125 5.525C9.8375 4.99167 9.65 4.43333 9.65 3.85C9.65 3.05 9.92917 2.375 10.4875 1.825C11.0458 1.275 11.7167 1 12.5 1C13.3 1 13.975 1.275 14.525 1.825C15.075 2.375 15.35 3.05 15.35 3.85C15.35 4.43333 15.1583 4.99167 14.775 5.525C14.3917 6.05833 13.8833 6.41667 13.25 6.6V9.825C13.7667 9.94167 14.2417 10.1417 14.675 10.425C15.1083 10.7083 15.475 11.1167 15.775 11.65L18.8 10.6V10.5C18.8 9.7 19.0792 9.025 19.6375 8.475C20.1958 7.925 20.8667 7.65 21.65 7.65C22.45 7.65 23.125 7.925 23.675 8.475C24.225 9.025 24.5 9.7 24.5 10.5C24.5 11.2833 24.225 11.9542 23.675 12.5125C23.125 13.0708 22.45 13.35 21.65 13.35C21.1167 13.35 20.6417 13.2333 20.225 13C19.8083 12.7667 19.4833 12.4417 19.25 12.025L16.225 13.05C16.3083 13.5833 16.2708 14.0958 16.1125 14.5875C15.9542 15.0792 15.7083 15.5167 15.375 15.9L17.5 18.55C17.6833 18.4667 17.8625 18.4042 18.0375 18.3625C18.2125 18.3208 18.4167 18.3 18.65 18.3C19.45 18.3 20.125 18.575 20.675 19.125C21.225 19.675 21.5 20.35 21.5 21.15C21.5 21.9333 21.225 22.6042 20.675 23.1625C20.125 23.7208 19.45 24 18.65 24C17.8667 24 17.1958 23.7208 16.6375 23.1625C16.0792 22.6042 15.8 21.9333 15.8 21.15C15.8 20.8167 15.8458 20.5167 15.9375 20.25C16.0292 19.9833 16.1583 19.725 16.325 19.475L14.2 16.825C13.6667 17.1083 13.0958 17.25 12.4875 17.25C11.8792 17.25 11.3083 17.1083 10.775 16.825L8.675 19.5C8.84167 19.75 8.97083 20.0042 9.0625 20.2625C9.15417 20.5208 9.2 20.8167 9.2 21.15C9.2 21.9333 8.925 22.6042 8.375 23.1625C7.825 23.7208 7.15 24 6.35 24ZM3.35 11.85C3.73333 11.85 4.05417 11.7208 4.3125 11.4625C4.57083 11.2042 4.7 10.8833 4.7 10.5C4.7 10.1167 4.57083 9.79583 4.3125 9.5375C4.05417 9.27917 3.73333 9.15 3.35 9.15C2.96667 9.15 2.64583 9.27917 2.3875 9.5375C2.12917 9.79583 2 10.1167 2 10.5C2 10.8833 2.12917 11.2042 2.3875 11.4625C2.64583 11.7208 2.96667 11.85 3.35 11.85ZM6.35 22.5C6.73333 22.5 7.05417 22.3708 7.3125 22.1125C7.57083 21.8542 7.7 21.5333 7.7 21.15C7.7 20.7667 7.57083 20.4458 7.3125 20.1875C7.05417 19.9292 6.73333 19.8 6.35 19.8C5.96667 19.8 5.64583 19.9292 5.3875 20.1875C5.12917 20.4458 5 20.7667 5 21.15C5 21.5333 5.12917 21.8542 5.3875 22.1125C5.64583 22.3708 5.96667 22.5 6.35 22.5ZM12.5 5.2C12.8833 5.2 13.2042 5.07083 13.4625 4.8125C13.7208 4.55417 13.85 4.23333 13.85 3.85C13.85 3.46667 13.7208 3.14583 13.4625 2.8875C13.2042 2.62917 12.8833 2.5 12.5 2.5C12.1167 2.5 11.7958 2.62917 11.5375 2.8875C11.2792 3.14583 11.15 3.46667 11.15 3.85C11.15 4.23333 11.2792 4.55417 11.5375 4.8125C11.7958 5.07083 12.1167 5.2 12.5 5.2ZM12.525 15.75C13.1417 15.75 13.6667 15.5292 14.1 15.0875C14.5333 14.6458 14.75 14.1083 14.75 13.475C14.75 12.8583 14.5333 12.3333 14.1 11.9C13.6667 11.4667 13.1333 11.25 12.5 11.25C11.8833 11.25 11.3542 11.4667 10.9125 11.9C10.4708 12.3333 10.25 12.8667 10.25 13.5C10.25 14.1167 10.4708 14.6458 10.9125 15.0875C11.3542 15.5292 11.8917 15.75 12.525 15.75ZM18.65 22.5C19.0333 22.5 19.3542 22.3708 19.6125 22.1125C19.8708 21.8542 20 21.5333 20 21.15C20 20.7667 19.8708 20.4458 19.6125 20.1875C19.3542 19.9292 19.0333 19.8 18.65 19.8C18.2667 19.8 17.9458 19.9292 17.6875 20.1875C17.4292 20.4458 17.3 20.7667 17.3 21.15C17.3 21.5333 17.4292 21.8542 17.6875 22.1125C17.9458 22.3708 18.2667 22.5 18.65 22.5ZM21.65 11.85C22.0333 11.85 22.3542 11.7208 22.6125 11.4625C22.8708 11.2042 23 10.8833 23 10.5C23 10.1167 22.8708 9.79583 22.6125 9.5375C22.3542 9.27917 22.0333 9.15 21.65 9.15C21.2667 9.15 20.9458 9.27917 20.6875 9.5375C20.4292 9.79583 20.3 10.1167 20.3 10.5C20.3 10.8833 20.4292 11.2042 20.6875 11.4625C20.9458 11.7208 21.2667 11.85 21.65 11.85Z" fill="#443E3E"/>
</g>
<defs>
<clipPath id="clip0_561_5528">
<rect width="24" height="24" fill="white" transform="translate(0.5 0.5)"/>
</clipPath>
</defs>
</svg>
