<svg width="25" height="25" viewBox="0 0 25 25" fill="none" xmlns="http://www.w3.org/2000/svg">
<path d="M8.15 11.425C8.43333 11.425 8.67083 11.3292 8.8625 11.1375C9.05417 10.9458 9.15 10.7083 9.15 10.425C9.15 10.1417 9.05417 9.90417 8.8625 9.7125C8.67083 9.52083 8.43333 9.425 8.15 9.425C7.86667 9.425 7.62917 9.52083 7.4375 9.7125C7.24583 9.90417 7.15 10.1417 7.15 10.425C7.15 10.7083 7.24583 10.9458 7.4375 11.1375C7.62917 11.3292 7.86667 11.425 8.15 11.425ZM12.575 11.425C12.8583 11.425 13.0958 11.3292 13.2875 11.1375C13.4792 10.9458 13.575 10.7083 13.575 10.425C13.575 10.1417 13.4792 9.90417 13.2875 9.7125C13.0958 9.52083 12.8583 9.425 12.575 9.425C12.2917 9.425 12.0542 9.52083 11.8625 9.7125C11.6708 9.90417 11.575 10.1417 11.575 10.425C11.575 10.7083 11.6708 10.9458 11.8625 11.1375C12.0542 11.3292 12.2917 11.425 12.575 11.425ZM16.825 11.425C17.1083 11.425 17.3458 11.3292 17.5375 11.1375C17.7292 10.9458 17.825 10.7083 17.825 10.425C17.825 10.1417 17.7292 9.90417 17.5375 9.7125C17.3458 9.52083 17.1083 9.425 16.825 9.425C16.5417 9.425 16.3042 9.52083 16.1125 9.7125C15.9208 9.90417 15.825 10.1417 15.825 10.425C15.825 10.7083 15.9208 10.9458 16.1125 11.1375C16.3042 11.3292 16.5417 11.425 16.825 11.425ZM2.5 20.7V4C2.5 3.61667 2.65 3.27083 2.95 2.9625C3.25 2.65417 3.6 2.5 4 2.5H21C21.3833 2.5 21.7292 2.65417 22.0375 2.9625C22.3458 3.27083 22.5 3.61667 22.5 4V17C22.5 17.3833 22.3458 17.7292 22.0375 18.0375C21.7292 18.3458 21.3833 18.5 21 18.5H6.5L3.775 21.225C3.54167 21.4583 3.27083 21.5125 2.9625 21.3875C2.65417 21.2625 2.5 21.0333 2.5 20.7ZM4 18.875L5.875 17H21V4H4V18.875ZM4 4V18.875V4Z" fill="#443E3E"/>
</svg>
