<svg width="48" height="48" viewBox="0 0 48 48" fill="none" xmlns="http://www.w3.org/2000/svg">
<path d="M31.1477 19.1818V23.7273H17.6818V19.1818H31.1477ZM20.7642 41V17.6051C20.7642 16.0237 21.072 14.7121 21.6875 13.6705C22.3125 12.6288 23.1648 11.8475 24.2443 11.3267C25.3239 10.8059 26.5502 10.5455 27.9233 10.5455C28.8513 10.5455 29.6989 10.6165 30.4659 10.7585C31.2424 10.9006 31.8201 11.0284 32.1989 11.142L31.1193 15.6875C30.8826 15.6117 30.589 15.5407 30.2386 15.4744C29.8977 15.4081 29.5473 15.375 29.1875 15.375C28.2973 15.375 27.6771 15.5833 27.3267 16C26.9763 16.4072 26.8011 16.9801 26.8011 17.7188V41H20.7642Z" fill="#3B5999"/>
</svg>
