<svg width="48" height="48" viewBox="0 0 48 48" fill="none" xmlns="http://www.w3.org/2000/svg">
<g clip-path="url(#clip0_613_8117)">
<path d="M17.1376 26.0092L16.3307 29.0216L13.3814 29.084C12.4999 27.4491 12 25.5787 12 23.5911C12 21.669 12.4674 19.8565 13.296 18.2605H13.2966L15.9223 18.7419L17.0726 21.3518C16.8318 22.0537 16.7006 22.8071 16.7006 23.5911C16.7007 24.4419 16.8548 25.2571 17.1376 26.0092Z" fill="#FBBB00"/>
<path d="M34.9793 21.4253C35.1124 22.1265 35.1818 22.8506 35.1818 23.5906C35.1818 24.4205 35.0945 25.2299 34.9283 26.0107C34.3641 28.6677 32.8897 30.9878 30.8473 32.6296L30.8467 32.629L27.5395 32.4602L27.0714 29.5383C28.4266 28.7435 29.4858 27.4997 30.0437 26.0107H23.8457V21.4253H30.1341H34.9793Z" fill="#518EF8"/>
<path d="M30.8467 32.6293L30.8473 32.63C28.861 34.2266 26.3377 35.1819 23.5909 35.1819C19.1768 35.1819 15.3391 32.7147 13.3813 29.0839L17.1376 26.0092C18.1164 28.6215 20.6365 30.4812 23.5909 30.4812C24.8608 30.4812 26.0505 30.1379 27.0713 29.5386L30.8467 32.6293Z" fill="#28B446"/>
<path d="M30.9895 14.6684L27.2345 17.7426C26.178 17.0822 24.9291 16.7007 23.591 16.7007C20.5698 16.7007 18.0025 18.6456 17.0727 21.3517L13.2968 18.2604H13.2961C15.2252 14.5411 19.1113 12 23.591 12C26.4034 12 28.9821 13.0018 30.9895 14.6684Z" fill="#F14336"/>
</g>
<defs>
<clipPath id="clip0_613_8117">
<rect width="23.1818" height="23.1818" fill="white" transform="translate(12 12)"/>
</clipPath>
</defs>
</svg>
