<svg width="52" height="16" viewBox="0 0 52 16" fill="none" xmlns="http://www.w3.org/2000/svg">
<g clip-path="url(#clip0_1177_14464)">
<path d="M17.8611 11.6515H19.1955V11.8788H17.8611V11.6515ZM17.89 12.8165H19.4083V13.0474H17.623V10.5226H19.3542V10.7534H17.89V12.8165ZM21.1401 13.0474V12.629L21.1293 12.5605V11.8607C21.1293 11.6996 21.0836 11.5758 20.9922 11.4892C20.9034 11.4027 20.7699 11.3594 20.5918 11.3594C20.4693 11.3594 20.3527 11.3798 20.2421 11.4207C20.1315 11.4616 20.0377 11.5157 19.9607 11.583L19.8454 11.3918C19.9415 11.3101 20.0569 11.2476 20.1916 11.2043C20.3262 11.1586 20.4681 11.1357 20.6171 11.1357C20.8624 11.1357 21.0513 11.1971 21.1834 11.3197C21.318 11.4399 21.3855 11.6239 21.3855 11.8716V13.0474H21.1401ZM20.4873 13.0654C20.3454 13.0654 20.2216 13.0426 20.1158 12.9969C20.0125 12.9488 19.9331 12.8839 19.8777 12.8021C19.8225 12.7179 19.7947 12.6218 19.7947 12.5136C19.7947 12.415 19.8176 12.326 19.8633 12.2467C19.9114 12.1649 19.9883 12.1 20.0942 12.0519C20.2024 12.0014 20.3467 11.9761 20.5269 11.9761H21.1798V12.1673H20.5342C20.3514 12.1673 20.224 12.1998 20.1518 12.2647C20.0821 12.3296 20.0472 12.4102 20.0472 12.5064C20.0472 12.6146 20.0894 12.7011 20.1735 12.766C20.2576 12.831 20.3755 12.8634 20.5269 12.8634C20.6712 12.8634 20.7951 12.831 20.8984 12.766C21.0043 12.6987 21.0812 12.6025 21.1293 12.4775L21.1871 12.6542C21.139 12.7793 21.0547 12.8791 20.9346 12.9536C20.8167 13.0281 20.6677 13.0654 20.4873 13.0654ZM22.5896 13.0654C22.4333 13.0654 22.2854 13.0438 22.1459 13.0005C22.0064 12.9548 21.8971 12.8983 21.8177 12.831L21.9331 12.629C22.0101 12.6867 22.1086 12.7372 22.2289 12.7805C22.349 12.8214 22.4754 12.8418 22.6075 12.8418C22.788 12.8418 22.9178 12.8141 22.9971 12.7588C23.0765 12.7011 23.1161 12.6254 23.1161 12.5316C23.1161 12.4619 23.0933 12.4078 23.0476 12.3693C23.0043 12.3284 22.9467 12.2984 22.8745 12.2791C22.8024 12.2575 22.7218 12.2394 22.6328 12.225C22.5439 12.2106 22.4549 12.1938 22.3659 12.1745C22.2794 12.1553 22.2 12.1276 22.1278 12.0916C22.0558 12.0531 21.9967 12.0014 21.9512 11.9365C21.9079 11.8716 21.8861 11.785 21.8861 11.6768C21.8861 11.5734 21.915 11.4808 21.9728 11.399C22.0305 11.3173 22.1146 11.2536 22.2253 11.2079C22.3382 11.1598 22.4754 11.1357 22.6364 11.1357C22.7591 11.1357 22.8818 11.1526 23.0043 11.1862C23.1269 11.2175 23.228 11.2596 23.3074 11.3125L23.1955 11.5181C23.1114 11.4604 23.0211 11.4195 22.9249 11.3954C22.8288 11.369 22.7326 11.3558 22.6364 11.3558C22.4657 11.3558 22.3395 11.3858 22.2578 11.4459C22.1783 11.5036 22.1386 11.5782 22.1386 11.6696C22.1386 11.7417 22.1604 11.7982 22.2037 11.8391C22.2492 11.88 22.3083 11.9124 22.3803 11.9365C22.4549 11.9581 22.5355 11.9761 22.622 11.9906C22.711 12.005 22.7988 12.023 22.8853 12.0447C22.9743 12.0639 23.0549 12.0916 23.1269 12.1276C23.2015 12.1613 23.2604 12.2106 23.3037 12.2755C23.3494 12.338 23.3723 12.421 23.3723 12.5244C23.3723 12.635 23.341 12.7312 23.2785 12.8129C23.2183 12.8923 23.1293 12.9548 23.0116 13.0005C22.8962 13.0438 22.7554 13.0654 22.5896 13.0654ZM23.8422 13.0474V11.1538H24.0983V13.0474H23.8422ZM23.972 10.7354C23.9191 10.7354 23.8745 10.7174 23.8385 10.6813C23.8025 10.6452 23.7844 10.6019 23.7844 10.5514C23.7844 10.501 23.8025 10.4589 23.8385 10.4252C23.8745 10.3891 23.9191 10.3711 23.972 10.3711C24.0248 10.3711 24.0694 10.3879 24.1054 10.4216C24.1415 10.4553 24.1595 10.4973 24.1595 10.5478C24.1595 10.6007 24.1415 10.6452 24.1054 10.6813C24.0718 10.7174 24.0274 10.7354 23.972 10.7354ZM25.6151 13.0654C25.418 13.0654 25.2448 13.0245 25.0957 12.9428C24.9467 12.8586 24.83 12.7444 24.7459 12.6001C24.6616 12.4535 24.6196 12.2863 24.6196 12.0988C24.6196 11.9112 24.6593 11.7453 24.7386 11.601C24.8203 11.4568 24.9309 11.3437 25.0704 11.262C25.2123 11.1778 25.371 11.1357 25.5465 11.1357C25.7246 11.1357 25.882 11.1766 26.0191 11.2584C26.1586 11.3377 26.2679 11.4508 26.3473 11.5974C26.4266 11.7417 26.4663 11.9088 26.4663 12.0988C26.4663 12.1108 26.4652 12.124 26.4626 12.1385C26.4626 12.1505 26.4626 12.1637 26.4626 12.1781H24.8143V11.987H26.3257L26.2246 12.0627C26.2246 11.9257 26.1946 11.8042 26.1345 11.6984C26.0769 11.5902 25.9973 11.5061 25.8964 11.4459C25.7955 11.3858 25.6789 11.3558 25.5465 11.3558C25.4167 11.3558 25.3001 11.3858 25.1968 11.4459C25.0933 11.5061 25.0128 11.5902 24.9551 11.6984C24.8973 11.8066 24.8684 11.9305 24.8684 12.0699V12.1096C24.8684 12.2539 24.8997 12.3813 24.9622 12.4919C25.0271 12.6001 25.1161 12.6855 25.2291 12.748C25.3447 12.8081 25.4756 12.8382 25.6224 12.8382C25.7377 12.8382 25.8447 12.8178 25.9434 12.7769C26.0443 12.736 26.1308 12.6735 26.203 12.5893L26.3473 12.7552C26.2632 12.8562 26.1573 12.9332 26.0299 12.9861C25.9048 13.039 25.7666 13.0654 25.6151 13.0654ZM26.9876 13.0474V11.1538H27.2328V11.6696L27.2075 11.5794C27.2605 11.4351 27.3494 11.3257 27.4744 11.2512C27.5995 11.1742 27.7547 11.1357 27.9397 11.1357V11.3846C27.9302 11.3846 27.9205 11.3846 27.9108 11.3846C27.9013 11.3822 27.8916 11.381 27.8821 11.381C27.6825 11.381 27.5262 11.4423 27.4132 11.565C27.3002 11.6852 27.2437 11.8571 27.2437 12.0807V13.0474H26.9876ZM29.9239 13.0474V10.7534H29.0366V10.5226H31.078V10.7534H30.1908V13.0474H29.9239ZM32.0249 13.0654C31.8423 13.0654 31.6775 13.0245 31.5308 12.9428C31.3865 12.8586 31.2723 12.7444 31.1881 12.6001C31.104 12.4535 31.062 12.2863 31.062 12.0988C31.062 11.9088 31.104 11.7417 31.1881 11.5974C31.2723 11.4531 31.3865 11.3401 31.5308 11.2584C31.6752 11.1766 31.8397 11.1357 32.0249 11.1357C32.2125 11.1357 32.3785 11.1766 32.5227 11.2584C32.6694 11.3401 32.7836 11.4531 32.8654 11.5974C32.9495 11.7417 32.9917 11.9088 32.9917 12.0988C32.9917 12.2863 32.9495 12.4535 32.8654 12.6001C32.7836 12.7444 32.6694 12.8586 32.5227 12.9428C32.376 13.0245 32.2101 13.0654 32.0249 13.0654ZM32.0249 12.8382C32.162 12.8382 32.2834 12.8081 32.3893 12.748C32.4951 12.6855 32.578 12.5989 32.6381 12.4883C32.7006 12.3753 32.7319 12.2455 32.7319 12.0988C32.7319 11.9497 32.7006 11.8199 32.6381 11.7092C32.578 11.5986 32.4951 11.5133 32.3893 11.4531C32.2834 11.3906 32.1631 11.3594 32.0286 11.3594C31.8938 11.3594 31.7737 11.3906 31.6679 11.4531C31.562 11.5133 31.4779 11.5986 31.4154 11.7092C31.3529 11.8199 31.3216 11.9497 31.3216 12.0988C31.3216 12.2455 31.3529 12.3753 31.4154 12.4883C31.4779 12.5989 31.562 12.6855 31.6679 12.748C31.7737 12.8081 31.8927 12.8382 32.0249 12.8382ZM35.8805 11.1357C36.0344 11.1357 36.1679 11.1658 36.2809 11.2259C36.3962 11.2836 36.4853 11.3726 36.5478 11.4928C36.6127 11.6131 36.6452 11.7645 36.6452 11.9473V13.0474H36.3891V11.9725C36.3891 11.773 36.341 11.6227 36.2448 11.5217C36.1511 11.4183 36.0176 11.3666 35.8445 11.3666C35.7147 11.3666 35.6015 11.3942 35.5053 11.4495C35.4116 11.5025 35.3382 11.5806 35.2854 11.684C35.2349 11.785 35.2097 11.9076 35.2097 12.0519V13.0474H34.9536V11.9725C34.9536 11.773 34.9055 11.6227 34.8093 11.5217C34.7132 11.4183 34.5784 11.3666 34.4053 11.3666C34.2779 11.3666 34.166 11.3942 34.0698 11.4495C33.9737 11.5025 33.8992 11.5806 33.8462 11.684C33.7958 11.785 33.7705 11.9076 33.7705 12.0519V13.0474H33.5144V11.1538H33.7597V11.666L33.7201 11.5758C33.7777 11.4387 33.8703 11.3317 33.9978 11.2548C34.1276 11.1754 34.2802 11.1357 34.4558 11.1357C34.641 11.1357 34.7985 11.1826 34.9283 11.2764C35.0581 11.3678 35.1423 11.5061 35.1808 11.6912L35.0797 11.6515C35.1351 11.4976 35.2326 11.3738 35.3719 11.28C35.5138 11.1838 35.6834 11.1357 35.8805 11.1357ZM38.1115 13.0654C37.9287 13.0654 37.764 13.0245 37.6174 12.9428C37.4731 12.8586 37.3589 12.7444 37.2748 12.6001C37.1906 12.4535 37.1484 12.2863 37.1484 12.0988C37.1484 11.9088 37.1906 11.7417 37.2748 11.5974C37.3589 11.4531 37.4731 11.3401 37.6174 11.2584C37.7616 11.1766 37.9263 11.1357 38.1115 11.1357C38.2991 11.1357 38.4649 11.1766 38.6093 11.2584C38.756 11.3401 38.8702 11.4531 38.952 11.5974C39.0361 11.7417 39.0781 11.9088 39.0781 12.0988C39.0781 12.2863 39.0361 12.4535 38.952 12.6001C38.8702 12.7444 38.756 12.8586 38.6093 12.9428C38.4626 13.0245 38.2967 13.0654 38.1115 13.0654ZM38.1115 12.8382C38.2486 12.8382 38.37 12.8081 38.4759 12.748C38.5816 12.6855 38.6646 12.5989 38.7247 12.4883C38.7872 12.3753 38.8185 12.2455 38.8185 12.0988C38.8185 11.9497 38.7872 11.8199 38.7247 11.7092C38.6646 11.5986 38.5816 11.5133 38.4759 11.4531C38.37 11.3906 38.2498 11.3594 38.1152 11.3594C37.9805 11.3594 37.8603 11.3906 37.7545 11.4531C37.6486 11.5133 37.5645 11.5986 37.502 11.7092C37.4395 11.8199 37.4082 11.9497 37.4082 12.0988C37.4082 12.2455 37.4395 12.3753 37.502 12.4883C37.5645 12.5989 37.6486 12.6855 37.7545 12.748C37.8603 12.8081 37.9793 12.8382 38.1115 12.8382ZM39.601 13.0474V11.1538H39.8462V11.6696L39.821 11.5794C39.874 11.4351 39.9628 11.3257 40.0879 11.2512C40.2129 11.1742 40.3681 11.1357 40.5532 11.1357V11.3846C40.5436 11.3846 40.534 11.3846 40.5243 11.3846C40.5148 11.3822 40.5051 11.381 40.4956 11.381C40.2959 11.381 40.1396 11.4423 40.0266 11.565C39.9136 11.6852 39.8571 11.8571 39.8571 12.0807V13.0474H39.601ZM41.0205 13.0474V11.1538H41.2657V11.6696L41.2405 11.5794C41.2935 11.4351 41.3823 11.3257 41.5074 11.2512C41.6324 11.1742 41.7876 11.1357 41.9727 11.1357V11.3846C41.9631 11.3846 41.9535 11.3846 41.9438 11.3846C41.9342 11.3822 41.9246 11.381 41.915 11.381C41.7154 11.381 41.5591 11.4423 41.4461 11.565C41.3331 11.6852 41.2766 11.8571 41.2766 12.0807V13.0474H41.0205ZM43.1943 13.0654C43.0114 13.0654 42.8467 13.0245 42.7001 12.9428C42.5558 12.8586 42.4416 12.7444 42.3575 12.6001C42.2732 12.4535 42.2312 12.2863 42.2312 12.0988C42.2312 11.9088 42.2732 11.7417 42.3575 11.5974C42.4416 11.4531 42.5558 11.3401 42.7001 11.2584C42.8443 11.1766 43.0091 11.1357 43.1943 11.1357C43.3818 11.1357 43.5477 11.1766 43.6919 11.2584C43.8387 11.3401 43.9528 11.4531 44.0347 11.5974C44.1188 11.7417 44.1608 11.9088 44.1608 12.0988C44.1608 12.2863 44.1188 12.4535 44.0347 12.6001C43.9528 12.7444 43.8387 12.8586 43.6919 12.9428C43.5453 13.0245 43.3795 13.0654 43.1943 13.0654ZM43.1943 12.8382C43.3314 12.8382 43.4528 12.8081 43.5585 12.748C43.6643 12.6855 43.7473 12.5989 43.8074 12.4883C43.87 12.3753 43.9012 12.2455 43.9012 12.0988C43.9012 11.9497 43.87 11.8199 43.8074 11.7092C43.7473 11.5986 43.6643 11.5133 43.5585 11.4531C43.4528 11.3906 43.3325 11.3594 43.1979 11.3594C43.0632 11.3594 42.9429 11.3906 42.8372 11.4531C42.7314 11.5133 42.6472 11.5986 42.5847 11.7092C42.5222 11.8199 42.4909 11.9497 42.4909 12.0988C42.4909 12.2455 42.5222 12.3753 42.5847 12.4883C42.6472 12.5989 42.7314 12.6855 42.8372 12.748C42.9429 12.8081 43.0619 12.8382 43.1943 12.8382ZM45.0168 13.0474L44.3026 11.1538H44.5479L45.1971 12.9103H45.0854L45.7525 11.1538H45.9726L46.6326 12.9103H46.5209L47.1809 11.1538H47.4153L46.6975 13.0474H46.456L45.8211 11.3954H45.8969L45.2585 13.0474H45.0168Z" fill="#121317"/>
<path d="M17.6906 8.10865V4.07041H19.6636C20.1712 4.07041 20.5519 4.16657 20.8057 4.35887C21.0634 4.55117 21.1922 4.805 21.1922 5.12036C21.1922 5.33188 21.1403 5.51649 21.0366 5.67418C20.9326 5.82802 20.7903 5.94724 20.6095 6.03184C20.4288 6.11645 20.2212 6.15876 19.9865 6.15876L20.0962 5.92223C20.3501 5.92223 20.5749 5.96454 20.7711 6.04915C20.9672 6.12991 21.1192 6.25107 21.2268 6.41259C21.3384 6.57412 21.3941 6.77218 21.3941 7.00679C21.3941 7.35293 21.2576 7.62407 20.9845 7.82021C20.7116 8.0125 20.3096 8.10865 19.7789 8.10865H17.6906ZM18.6194 7.40484H19.7096C19.9519 7.40484 20.1346 7.36639 20.2577 7.28947C20.3847 7.2087 20.4481 7.08179 20.4481 6.90872C20.4481 6.73949 20.3847 6.61451 20.2577 6.53375C20.1346 6.44914 19.9519 6.40683 19.7096 6.40683H18.55V5.72609H19.548C19.775 5.72609 19.9481 5.68764 20.0673 5.61072C20.1904 5.52995 20.252 5.4088 20.252 5.24727C20.252 5.08959 20.1904 4.97229 20.0673 4.89537C19.9481 4.81461 19.775 4.77423 19.548 4.77423H18.6194V7.40484ZM23.3477 8.1548C23.0902 8.1548 22.8593 8.10481 22.6555 8.00482C22.4556 7.90481 22.2997 7.7529 22.1882 7.54907C22.0768 7.34139 22.0209 7.07793 22.0209 6.75873V5.00498H22.9209V6.62604C22.9209 6.88373 22.9747 7.07409 23.0824 7.19716C23.194 7.31638 23.3496 7.376 23.5498 7.376C23.6881 7.376 23.8113 7.34715 23.9189 7.28947C24.0266 7.22793 24.1112 7.13563 24.1728 7.01255C24.2343 6.88565 24.265 6.72796 24.265 6.53951V5.00498H25.1649V8.10865H24.3112V7.25486L24.467 7.50291C24.363 7.71829 24.2093 7.88174 24.0055 7.99327C23.8054 8.10095 23.5863 8.1548 23.3477 8.1548ZM27.9025 8.10865V7.50291L27.8447 7.37023V6.28568C27.8447 6.09338 27.7852 5.94339 27.6659 5.8357C27.5505 5.72803 27.3717 5.67418 27.1295 5.67418C26.964 5.67418 26.8006 5.7011 26.6392 5.75494C26.4814 5.80494 26.3469 5.87416 26.2353 5.96262L25.9122 5.3338C26.0814 5.21458 26.2853 5.12229 26.5236 5.0569C26.7621 4.99152 27.0045 4.95883 27.2506 4.95883C27.7237 4.95883 28.0909 5.07036 28.3524 5.29343C28.6139 5.51649 28.7447 5.86455 28.7447 6.33761V8.10865H27.9025ZM26.9564 8.1548C26.7141 8.1548 26.5063 8.11443 26.3334 8.03365C26.1602 7.94904 26.0276 7.83559 25.9352 7.69329C25.843 7.55099 25.7968 7.39138 25.7968 7.21447C25.7968 7.02987 25.8411 6.86833 25.9295 6.72989C26.0218 6.59143 26.1661 6.48375 26.3622 6.40683C26.5584 6.32605 26.814 6.28568 27.1295 6.28568H27.9544V6.81065H27.2276C27.0161 6.81065 26.8699 6.84526 26.7891 6.91448C26.7122 6.98372 26.6738 7.07025 26.6738 7.17409C26.6738 7.28947 26.7179 7.38176 26.8064 7.451C26.8986 7.51638 27.0237 7.54907 27.1814 7.54907C27.3314 7.54907 27.4659 7.51446 27.5851 7.44523C27.7045 7.37215 27.7909 7.2664 27.8447 7.12794L27.9833 7.5433C27.9179 7.7433 27.7986 7.8952 27.6256 7.99904C27.4525 8.10289 27.2295 8.1548 26.9564 8.1548ZM30.8285 8.1548C30.463 8.1548 30.1785 8.0625 29.9745 7.8779C29.7708 7.68945 29.6689 7.41061 29.6689 7.0414V4.31848H30.5688V7.02987C30.5688 7.16063 30.6034 7.26254 30.6726 7.33562C30.7418 7.40484 30.8361 7.43946 30.9552 7.43946C31.0976 7.43946 31.2187 7.401 31.3188 7.32408L31.561 7.95866C31.4688 8.02404 31.3572 8.07404 31.2265 8.10865C31.0995 8.13942 30.9668 8.1548 30.8285 8.1548ZM29.19 5.76648V5.07422H31.3418V5.76648H29.19ZM33.7635 8.10865V4.07041H35.7365C36.2441 4.07041 36.6248 4.16657 36.8787 4.35887C37.1363 4.55117 37.2651 4.805 37.2651 5.12036C37.2651 5.33188 37.2132 5.51649 37.1095 5.67418C37.0055 5.82802 36.8633 5.94724 36.6826 6.03184C36.5018 6.11645 36.2941 6.15876 36.0594 6.15876L36.1691 5.92223C36.423 5.92223 36.6478 5.96454 36.844 6.04915C37.0401 6.12991 37.1921 6.25107 37.2997 6.41259C37.4113 6.57412 37.4671 6.77218 37.4671 7.00679C37.4671 7.35293 37.3305 7.62407 37.0576 7.82021C36.7845 8.0125 36.3825 8.10865 35.8518 8.10865H33.7635ZM34.6923 7.40484H35.7826C36.0248 7.40484 36.2076 7.36639 36.3306 7.28947C36.4576 7.2087 36.521 7.08179 36.521 6.90872C36.521 6.73949 36.4576 6.61451 36.3306 6.53375C36.2076 6.44914 36.0248 6.40683 35.7826 6.40683H34.6231V5.72609H35.6211C35.848 5.72609 36.021 5.68764 36.1402 5.61072C36.2633 5.52995 36.3249 5.4088 36.3249 5.24727C36.3249 5.08959 36.2633 4.97229 36.1402 4.89537C36.021 4.81461 35.848 4.77423 35.6211 4.77423H34.6923V7.40484ZM39.6515 8.1548C39.2977 8.1548 38.9861 8.08558 38.7168 7.94712C38.4515 7.80868 38.2458 7.62021 38.0997 7.38176C37.9535 7.13947 37.8804 6.86449 37.8804 6.55682C37.8804 6.2453 37.9516 5.97032 38.0938 5.73187C38.24 5.48958 38.438 5.30111 38.6881 5.16651C38.9381 5.02805 39.2207 4.95883 39.536 4.95883C39.8399 4.95883 40.113 5.02421 40.3553 5.15498C40.6015 5.2819 40.7957 5.4665 40.9379 5.70879C41.0802 5.94724 41.1513 6.23376 41.1513 6.56836C41.1513 6.60297 41.1494 6.64336 41.1456 6.68951C41.1418 6.73181 41.1378 6.77218 41.134 6.81065H38.6131V6.28568H40.661L40.3149 6.44144C40.3149 6.27991 40.2822 6.13953 40.2168 6.0203C40.1514 5.90108 40.0611 5.80878 39.9458 5.7434C39.8302 5.67418 39.6957 5.63956 39.5419 5.63956C39.388 5.63956 39.2515 5.67418 39.1323 5.7434C39.0169 5.80878 38.9265 5.90301 38.8611 6.02608C38.7957 6.1453 38.763 6.2876 38.763 6.45298V6.59143C38.763 6.76065 38.7995 6.91064 38.8727 7.0414C38.9496 7.16832 39.0553 7.2664 39.1899 7.33562C39.3284 7.401 39.49 7.43369 39.6745 7.43369C39.8399 7.43369 39.9842 7.40869 40.1071 7.35869C40.2341 7.3087 40.3495 7.23371 40.4534 7.13371L40.9322 7.6529C40.7898 7.81444 40.611 7.93944 40.3956 8.02789C40.1803 8.11249 39.9323 8.1548 39.6515 8.1548ZM42.7947 8.1548C42.5294 8.1548 42.2736 8.12403 42.0275 8.0625C41.7851 7.99712 41.5928 7.91635 41.4506 7.82021L41.7505 7.17409C41.8929 7.26254 42.0602 7.33562 42.2525 7.3933C42.4486 7.44715 42.6408 7.47408 42.8293 7.47408C43.0371 7.47408 43.1832 7.44908 43.2678 7.39908C43.3562 7.34907 43.4005 7.27985 43.4005 7.1914C43.4005 7.11832 43.3659 7.06448 43.2967 7.02987C43.2313 6.99142 43.1427 6.96257 43.0312 6.94333C42.9196 6.9241 42.7966 6.90488 42.6621 6.88565C42.5313 6.86641 42.3986 6.84142 42.2639 6.81065C42.1293 6.77604 42.0064 6.72604 41.8948 6.66066C41.7832 6.59527 41.6928 6.50682 41.6236 6.39529C41.5582 6.28376 41.5255 6.13953 41.5255 5.96262C41.5255 5.76648 41.5814 5.59341 41.6928 5.44341C41.8082 5.29343 41.9737 5.17613 42.189 5.09151C42.4044 5.00306 42.6621 4.95883 42.962 4.95883C43.1735 4.95883 43.3889 4.98191 43.6082 5.02805C43.8273 5.07422 44.01 5.14152 44.1561 5.22997L43.8562 5.87032C43.7063 5.78187 43.5542 5.72225 43.4005 5.69148C43.2505 5.65687 43.1043 5.63956 42.962 5.63956C42.762 5.63956 42.6159 5.66649 42.5235 5.72033C42.4313 5.77417 42.3852 5.84339 42.3852 5.92801C42.3852 6.00493 42.4178 6.06261 42.4832 6.10108C42.5524 6.13953 42.6429 6.1703 42.7543 6.19337C42.8658 6.21645 42.9871 6.2376 43.1178 6.25683C43.2524 6.27223 43.387 6.29722 43.5215 6.33183C43.6563 6.36644 43.7774 6.41645 43.8851 6.48183C43.9965 6.54335 44.087 6.62988 44.1561 6.74143C44.2253 6.8491 44.2599 6.99142 44.2599 7.16832C44.2599 7.36061 44.2023 7.53176 44.087 7.68176C43.9716 7.82789 43.8043 7.94328 43.585 8.02789C43.3697 8.11249 43.1062 8.1548 42.7947 8.1548ZM46.2921 8.1548C45.9614 8.1548 45.6672 8.08558 45.4095 7.94712C45.1556 7.80868 44.9537 7.62021 44.8038 7.38176C44.6576 7.13947 44.5845 6.86449 44.5845 6.55682C44.5845 6.2453 44.6576 5.97032 44.8038 5.73187C44.9537 5.48958 45.1556 5.30111 45.4095 5.16651C45.6672 5.02805 45.9614 4.95883 46.2921 4.95883C46.619 4.95883 46.9113 5.02805 47.1689 5.16651C47.4266 5.30111 47.6286 5.48766 47.7746 5.72609C47.9208 5.96454 47.9939 6.24146 47.9939 6.55682C47.9939 6.86449 47.9208 7.13947 47.7746 7.38176C47.6286 7.62021 47.4266 7.80868 47.1689 7.94712C46.9113 8.08558 46.619 8.1548 46.2921 8.1548ZM46.2921 7.41639C46.4421 7.41639 46.5767 7.38176 46.6958 7.31254C46.8152 7.24332 46.9094 7.14525 46.9786 7.01833C47.0478 6.88757 47.0824 6.73373 47.0824 6.55682C47.0824 6.37606 47.0478 6.22222 46.9786 6.0953C46.9094 5.9684 46.8152 5.87032 46.6958 5.80109C46.5767 5.73187 46.4421 5.69726 46.2921 5.69726C46.1422 5.69726 46.0074 5.73187 45.8883 5.80109C45.7691 5.87032 45.6729 5.9684 45.5998 6.0953C45.5306 6.22222 45.496 6.37606 45.496 6.55682C45.496 6.73373 45.5306 6.88757 45.5998 7.01833C45.6729 7.14525 45.7691 7.24332 45.8883 7.31254C46.0074 7.38176 46.1422 7.41639 46.2921 7.41639ZM49.3396 7.47408L49.3627 6.37798L50.8107 5.00498H51.8838L50.4935 6.41837L50.0261 6.79911L49.3396 7.47408ZM48.5955 8.10865V3.82812H49.4955V8.10865H48.5955ZM50.9088 8.10865L49.8589 6.80487L50.4241 6.10684L51.9992 8.10865H50.9088Z" fill="#121317"/>
<path fill-rule="evenodd" clip-rule="evenodd" d="M8.95272 3.26855C8.43356 3.26855 8.0127 3.6894 8.0127 4.20856V7.61284V9.74716C8.0127 9.74716 9.34329 9.68418 10.546 8.90584C11.1293 8.52837 11.574 8.07141 11.8774 7.70085C12.1708 7.34232 12.692 7.20193 13.0932 7.43381C13.4757 7.65493 13.609 8.13495 13.343 8.48772C12.9575 8.99907 12.3053 9.72204 11.3479 10.3366C9.65772 11.4213 8.0127 11.3978 8.0127 11.3978V12.8591C8.0127 13.3783 8.43356 13.7991 8.95272 13.7991H14.2883C14.8074 13.7991 15.2283 13.3783 15.2283 12.8591V4.20856C15.2283 3.6894 14.8074 3.26855 14.2883 3.26855H8.95272ZM12.615 6.6451C12.0658 6.6451 11.6205 6.19982 11.6205 5.65056C11.6205 5.10128 12.0658 4.65601 12.615 4.65601C13.1643 4.65601 13.6096 5.10128 13.6096 5.65056C13.6096 6.19982 13.1643 6.6451 12.615 6.6451Z" fill="#00BCD4"/>
<path fill-rule="evenodd" clip-rule="evenodd" d="M6.27568 0C6.79484 0 7.21571 0.420861 7.21571 0.940019V7.61274V9.74706C7.21571 9.74706 5.88511 9.68408 4.68236 8.90574C4.19557 8.59073 3.85289 8.2175 3.61744 7.88479C3.32218 7.46759 2.72749 7.24187 2.28498 7.49766C1.96745 7.68122 1.8246 8.05989 2.00357 8.38003C2.29363 8.89889 2.86128 9.68229 3.88052 10.3365C5.57068 11.4212 7.21571 11.3977 7.21571 11.3977V14.2855C7.21571 14.8046 6.79484 15.2255 6.27568 15.2255H0.940142C0.420983 15.2255 0.00012207 14.8046 0.00012207 14.2855V0.940019C0.00012207 0.420861 0.420983 0 0.940142 0H6.27568ZM2.61337 6.645C2.06411 6.645 1.61884 6.19972 1.61884 5.65046C1.61884 5.10118 2.06411 4.65591 2.61337 4.65591C3.16265 4.65591 3.60792 5.10118 3.60792 5.65046C3.60792 6.19972 3.16265 6.645 2.61337 6.645Z" fill="#3A8BEB"/>
</g>
<defs>
<clipPath id="clip0_1177_14464">
<rect width="52" height="15.2264" fill="white"/>
</clipPath>
</defs>
</svg>
