<svg width="15" height="16" viewBox="0 0 15 16" fill="none" xmlns="http://www.w3.org/2000/svg">
<g clip-path="url(#clip0_1177_14469)">
<path d="M12.7907 2.29309C11.3868 0.888238 9.52009 0.114138 7.53121 0.113281C3.43279 0.113281 0.0975117 3.4475 0.0958709 7.54573C0.0953934 8.85574 0.437683 10.1345 1.08828 11.2617L0.0334473 15.1133L3.975 14.0798C5.06098 14.672 6.28371 14.9841 7.52801 14.9846H7.53117H7.53121C11.629 14.9846 14.9647 11.6498 14.9665 7.55175C14.9672 5.56556 14.1944 3.69804 12.7907 2.29309ZM7.53121 13.7292H7.52879C6.41969 13.7286 5.33206 13.4309 4.38339 12.8679L4.15762 12.7341L1.81862 13.3474L2.4431 11.0677L2.29601 10.834C1.67734 9.85027 1.35074 8.71348 1.3512 7.5462C1.35256 4.13989 4.12472 1.3687 7.53355 1.3687C9.18428 1.36938 10.7358 2.01282 11.9026 3.18049C13.0694 4.34815 13.7115 5.90039 13.711 7.55122C13.7096 10.9576 10.9373 13.7292 7.53121 13.7292Z" fill="#E0E0E0"/>
<path d="M0.374756 14.6856L1.38141 11.01C0.760367 9.93423 0.433776 8.71379 0.434167 7.46386C0.435796 3.55291 3.61875 0.371094 7.52961 0.371094C9.42774 0.371951 11.2093 1.11065 12.5487 2.45136C13.8885 3.79207 14.6258 5.57415 14.625 7.46941C14.6234 11.3804 11.4403 14.5625 7.52989 14.5625C7.52961 14.5625 7.53009 14.5625 7.52989 14.5625H7.52674C6.33928 14.5622 5.17249 14.2641 4.13619 13.6993L0.374756 14.6856Z" fill="#20B038"/>
<path fill-rule="evenodd" clip-rule="evenodd" d="M5.69388 4.38998C5.55632 4.08415 5.41149 4.07802 5.28062 4.07267C5.17358 4.06808 5.05103 4.06836 4.92868 4.06836C4.80624 4.06836 4.60726 4.11438 4.43899 4.29815C4.27063 4.48192 3.79614 4.92617 3.79614 5.82969C3.79614 6.73332 4.4543 7.60643 4.54603 7.72906C4.63787 7.85151 5.81652 9.76495 7.68317 10.5011C9.23452 11.1128 9.55021 10.9911 9.88694 10.9605C10.2237 10.9299 10.9735 10.5164 11.1265 10.0875C11.2796 9.65875 11.2796 9.29122 11.2337 9.2144C11.1878 9.13787 11.0653 9.09195 10.8816 9.00011C10.698 8.90828 9.79511 8.46393 9.62674 8.40271C9.45838 8.34148 9.33593 8.31087 9.21348 8.49474C9.09104 8.67841 8.73928 9.09195 8.63214 9.2144C8.525 9.33713 8.41786 9.35243 8.23419 9.2606C8.05052 9.16848 7.45903 8.97476 6.75736 8.34912C6.21142 7.86239 5.84283 7.26125 5.73568 7.0774C5.62854 6.89373 5.7242 6.79424 5.81633 6.70268C5.89878 6.62041 6 6.4883 6.09184 6.38106C6.18347 6.27382 6.21409 6.19729 6.27531 6.07485C6.33653 5.9522 6.30592 5.84498 6.26 5.75314C6.21409 5.66131 5.85718 4.75311 5.69388 4.38998Z" fill="white"/>
<path d="M12.73 2.27003C11.3422 0.881302 9.49688 0.116104 7.53084 0.115234C3.47946 0.115234 0.18247 3.41118 0.180842 7.46236C0.180364 8.75735 0.518723 10.0214 1.16185 11.1357L0.119141 14.943L4.01545 13.9214C5.08897 14.5068 6.29766 14.8153 7.52768 14.8158H7.53081H7.53084C11.5815 14.8158 14.879 11.5193 14.8807 7.46829C14.8814 5.50493 14.1176 3.65885 12.73 2.27003ZM7.53084 13.5749H7.52846C6.43207 13.5743 5.35693 13.28 4.41915 12.7235L4.19596 12.5912L1.88382 13.1974L2.50112 10.9439L2.35572 10.7129C1.74415 9.74047 1.4213 8.61672 1.42177 7.46285C1.42311 4.09564 4.16344 1.35626 7.53315 1.35626C9.16495 1.35694 10.6986 1.99299 11.8521 3.14725C13.0055 4.30151 13.6402 5.83593 13.6397 7.46783C13.6383 10.8351 10.8979 13.5749 7.53084 13.5749Z" fill="white"/>
</g>
<defs>
<clipPath id="clip0_1177_14469">
<rect width="15" height="15" fill="white" transform="translate(0 0.113281)"/>
</clipPath>
</defs>
</svg>
