<svg width="15" height="16" viewBox="0 0 15 16" fill="none" xmlns="http://www.w3.org/2000/svg">
<path d="M1.02273 13.238H3.40909V7.44256L0 4.88574V12.2153C0 12.7812 0.458523 13.238 1.02273 13.238Z" fill="#4285F4"/>
<path d="M11.5909 13.238H13.9773C14.5432 13.238 15 12.7795 15 12.2153V4.88574L11.5909 7.44256" fill="#34A853"/>
<path d="M11.5909 3.01098V7.4428L15 4.88598V3.52234C15 2.25757 13.5563 1.53655 12.5455 2.29507" fill="#FBBC04"/>
<path d="M3.40906 7.44256V3.01074L7.49997 6.07892L11.5909 3.01074V7.44256L7.49997 10.5107" fill="#EA4335"/>
<path d="M0 3.52234V4.88598L3.40909 7.4428V3.01098L2.45455 2.29507C1.44205 1.53655 0 2.25757 0 3.52234Z" fill="#C5221F"/>
</svg>
