<svg width="16" height="16" viewBox="0 0 16 16" fill="none" xmlns="http://www.w3.org/2000/svg">
<g id="logo">
<path id="Vector" d="M5.26669 13.6666H10.7334V11.5499C10.7334 10.7721 10.4695 10.1027 9.94169 9.54159C9.41391 8.98047 8.76669 8.69992 8.00002 8.69992C7.23335 8.69992 6.58613 8.98047 6.05835 9.54159C5.53058 10.1027 5.26669 10.7721 5.26669 11.5499V13.6666ZM12.8334 14.6666H3.16669C3.02224 14.6666 2.9028 14.6194 2.80835 14.5249C2.71391 14.4305 2.66669 14.311 2.66669 14.1666C2.66669 14.0221 2.71391 13.9027 2.80835 13.8083C2.9028 13.7138 3.02224 13.6666 3.16669 13.6666H4.26669V11.5499C4.26669 10.7721 4.46946 10.0583 4.87502 9.40825C5.28058 8.75825 5.84446 8.28881 6.56669 7.99992C5.84446 7.71103 5.28058 7.23881 4.87502 6.58325C4.46946 5.9277 4.26669 5.21103 4.26669 4.43325V2.33325H3.16669C3.02224 2.33325 2.9028 2.28603 2.80835 2.19159C2.71391 2.09714 2.66669 1.9777 2.66669 1.83325C2.66669 1.68881 2.71391 1.56936 2.80835 1.47492C2.9028 1.38047 3.02224 1.33325 3.16669 1.33325H12.8334C12.9778 1.33325 13.0972 1.38047 13.1917 1.47492C13.2861 1.56936 13.3334 1.68881 13.3334 1.83325C13.3334 1.9777 13.2861 2.09714 13.1917 2.19159C13.0972 2.28603 12.9778 2.33325 12.8334 2.33325H11.7334V4.43325C11.7334 5.21103 11.5278 5.9277 11.1167 6.58325C10.7056 7.23881 10.1445 7.71103 9.43335 7.99992C10.1556 8.28881 10.7195 8.75825 11.125 9.40825C11.5306 10.0583 11.7334 10.7721 11.7334 11.5499V13.6666H12.8334C12.9778 13.6666 13.0972 13.7138 13.1917 13.8083C13.2861 13.9027 13.3334 14.0221 13.3334 14.1666C13.3334 14.311 13.2861 14.4305 13.1917 14.5249C13.0972 14.6194 12.9778 14.6666 12.8334 14.6666Z" fill="#FC7061"/>
</g>
</svg>
